<?xml version="1.0" encoding="UTF-8" standalone="no"?>
<!-- Created with Inkscape (http://www.inkscape.org/) -->

<svg
   width="1792"
   height="768"
   viewBox="0 0 474.13333 203.2"
   version="1.1"
   id="svg5"
   sodipodi:docname="dice_timemap.svg"
   inkscape:version="1.2 (dc2aedaf03, 2022-05-15)"
   inkscape:export-filename="dice_timemap.png"
   inkscape:export-xdpi="96"
   inkscape:export-ydpi="96"
   xmlns:inkscape="http://www.inkscape.org/namespaces/inkscape"
   xmlns:sodipodi="http://sodipodi.sourceforge.net/DTD/sodipodi-0.dtd"
   xmlns:xlink="http://www.w3.org/1999/xlink"
   xmlns="http://www.w3.org/2000/svg"
   xmlns:svg="http://www.w3.org/2000/svg">
  <style
     id="style512">.dice_light {   }
.dice_dark { 
    fill:#d5d5a2;
    stop-color:#000000;
    stroke-width:0.021164;
}
.fill_selected {   }
.face_highlight {   }
.outline_selected {   }
.face_selected {   }
</style>
  <sodipodi:namedview
     id="namedview7"
     pagecolor="#ffffff"
     bordercolor="#000000"
     borderopacity="0.25"
     inkscape:showpageshadow="2"
     inkscape:pageopacity="0.0"
     inkscape:pagecheckerboard="0"
     inkscape:deskcolor="#d1d1d1"
     inkscape:document-units="px"
     showgrid="true"
     inkscape:zoom="0.70710678"
     inkscape:cx="626.49661"
     inkscape:cy="380.42345"
     inkscape:window-width="2560"
     inkscape:window-height="1369"
     inkscape:window-x="-8"
     inkscape:window-y="-8"
     inkscape:window-maximized="1"
     inkscape:current-layer="layer1">
    <inkscape:grid
       type="xygrid"
       id="grid132"
       snapvisiblegridlinesonly="false"
       spacingx="4.2333332"
       spacingy="4.2333332"
       enabled="true"
       visible="true"
       empspacing="4"
       empcolor="#0079b5"
       empopacity="0.46666667"
       originx="0"
       originy="0" />
  </sodipodi:namedview>
  <defs
     id="defs2" />
  <g
     inkscape:label="Layer 1"
     inkscape:groupmode="layer"
     id="layer1">
    <path
       id="path463"
       style="fill:#fce6fa;stroke-width:0.0130587;stop-color:#000000"
       d="m 277.67561,22.740974 -2.50911,1.699 c -0.16575,-1.02055 -1.42307,-3.46247 -4.24271,-3.43176 l 0.008,-8.30953 c 2.81962,0.0307 4.20766,-2.44302 4.23491,-3.6325801 5.25445,0 4.85635,6.2533001 4.63138,8.0234801 -0.22497,1.77019 -0.81707,4.7676 -2.12227,5.65139 z"
       sodipodi:nodetypes="scccczs"
       inkscape:transform-center-x="12.448953"
       inkscape:transform-center-y="-0.17963703" />
    <path
       id="path465"
       style="fill:#fce6fa;stroke-width:0.0130587;stop-color:#000000"
       d="m 293.67425,27.121844 1.699,2.50911 c -1.02055,0.16575 -3.46247,1.42307 -3.43176,4.242703 l -8.30953,-0.008 c 0.0307,-2.819613 -2.44302,-4.207653 -3.63258,-4.234903 0,-5.25445 6.25329,-4.85635 8.02348,-4.63138 1.77019,0.22497 4.7676,0.81707 5.65139,2.12227 z"
       sodipodi:nodetypes="scccczs"
       inkscape:transform-center-x="0.17948945"
       inkscape:transform-center-y="12.447921" />
    <use
       x="0"
       y="0"
       xlink:href="#g1074"
       id="use1325"
       transform="translate(33.866666,-135.46667)" />
    <path
       id="path467"
       style="fill:none;stroke:#de58c9;stroke-width:1.32291666;stroke-linejoin:round;stop-color:#000000;stroke-dasharray:none"
       d="m 270.92841,21.144814 c 1.99738,0.001 4.22356,2.16786 4.23966,4.86178 0.0161,2.69393 1.60497,3.59857 3.59857,3.59857 m 18.19972,0 c 1.99361,0 3.59857,-1.60496 3.59857,-3.59857 l 0.002,-9.08484 0.002,-9.0848501 c 0,-1.9936 -1.60496,-3.59857 -3.59857,-3.59857 h -18.19972 c -1.9936,0 -3.58246,0.90465 -3.59857,3.59857 -0.0161,2.6939301 -2.24228,4.8603801 -4.23965,4.8617801 m 21.14567,21.170353 c 0.001,-1.997373 2.16786,-4.223553 4.86179,-4.239653 2.69392,-0.0161 3.59856,-1.60497 3.59856,-3.59857 V 7.8310939 c 0,-1.99361 -1.60496,-3.59857 -3.59857,-3.59857 l -9.08484,-0.002 -9.08485,-0.002 c -1.99361,0 -3.59857,1.60496 -3.59857,3.59857 m 0,18.1997201 c 0,1.9936 0.90465,3.58246 3.59857,3.59857 2.69392,0.0161 4.86038,2.24228 4.86178,4.239643"
       sodipodi:nodetypes="cscccccssscccssccccccc"
       inkscape:transform-center-x="2.1171344"
       inkscape:transform-center-y="2.116102" />
    <path
       id="path457"
       style="fill:#fce6fa;stroke-width:0.0130587;stop-color:#000000"
       d="m 259.80788,27.122834 1.699,2.50911 c -1.02055,0.16575 -3.46248,1.42307 -3.43176,4.242713 l -8.30953,-0.008 c 0.0307,-2.819623 -2.44302,-4.207663 -3.63258,-4.234913 0,-5.25445 6.25329,-4.85635 8.02348,-4.63138 1.77019,0.22497 4.7676,0.81707 5.65139,2.12227 z"
       sodipodi:nodetypes="scccczs"
       inkscape:transform-center-x="0.17943285"
       inkscape:transform-center-y="12.448711" />
    <path
       id="path459"
       style="fill:#fce6fa;stroke-width:0.0130587;stop-color:#000000"
       d="m 264.18874,11.124194 2.50911,-1.6990001 c 0.16575,1.0205501 1.42307,3.4624701 4.24271,3.4317601 l -0.008,8.30953 c -2.81962,-0.0307 -4.20766,2.44302 -4.23491,3.63258 -5.25445,0 -4.85635,-6.25329 -4.63138,-8.02348 0.22497,-1.77019 0.81707,-4.7676 2.12227,-5.65139 z"
       sodipodi:nodetypes="scccczs"
       inkscape:transform-center-x="-12.448121"
       inkscape:transform-center-y="0.17924695" />
    <use
       x="0"
       y="0"
       xlink:href="#use1325"
       id="use1327"
       transform="translate(-33.866667)" />
    <path
       id="path358"
       style="fill:#fce6fa;stroke-width:0.0130587;stop-color:#000000"
       d="m 230.32266,11.124384 2.50911,-1.6990101 c 0.16575,1.0205601 1.42307,3.4624801 4.24271,3.4317601 l -0.008,8.30953 c -2.81962,-0.0307 -4.20766,2.44303 -4.23491,3.63259 -5.25445,0 -4.85635,-6.2533 -4.63138,-8.02349 0.22497,-1.77019 0.81707,-4.76759 2.12227,-5.65138 z"
       sodipodi:nodetypes="scccczs" />
    <path
       id="path356"
       style="fill:#fce6fa;stroke-width:0.0130587;stop-color:#000000"
       d="m 214.32402,6.7435139 -1.699,-2.50911 c 1.02055,-0.16575 3.46247,-1.42307 3.43176,-4.24271 l 8.30953,0.008000005 C 224.33561,2.8193139 226.80933,4.2073539 227.99889,4.2346039 c 0,5.25445 -6.25329,4.85635 -8.02348,4.63138 -1.77019,-0.22497 -4.7676,-0.81707 -5.65139,-2.12227 z"
       sodipodi:nodetypes="scccczs"
       inkscape:transform-center-x="-0.17904734"
       inkscape:transform-center-y="-12.448511" />
    <use
       x="0"
       y="0"
       xlink:href="#use1327"
       id="use1329"
       transform="translate(-33.866667)" />
    <path
       id="path5265"
       style="fill:#fce6fa;stroke-width:0.0130587;stop-color:#000000"
       d="m 180.45735,6.7435139 -1.699,-2.50911 c 1.02055,-0.16575 3.46247,-1.42307 3.43176,-4.24271 l 8.30953,0.008000005 C 190.46894,2.8193139 192.94266,4.2073539 194.13222,4.2346039 c 0,5.25445 -6.25329,4.85635 -8.02348,4.63138 -1.77019,-0.22497 -4.7676,-0.81707 -5.65139,-2.12227 z"
       sodipodi:nodetypes="scccczs"
       inkscape:transform-center-x="-0.17904734"
       inkscape:transform-center-y="-12.448511" />
    <use
       x="0"
       y="0"
       xlink:href="#use1329"
       id="use1331"
       transform="translate(-33.866667)" />
    <path
       id="path2120"
       style="fill:#fce6fa;stroke-width:0.0130587;stop-color:#000000"
       d="m 158.20787,27.122834 1.699,2.50911 c -1.02055,0.16575 -3.46248,1.42307 -3.43176,4.242713 l -8.30953,-0.008 c 0.0307,-2.819623 -2.44302,-4.207663 -3.63258,-4.234913 0,-5.25445 6.25329,-4.85635 8.02348,-4.63138 1.77019,0.22497 4.7676,0.81707 5.65139,2.12227 z"
       sodipodi:nodetypes="scccczs"
       inkscape:transform-center-x="0.17943285"
       inkscape:transform-center-y="12.448711" />
    <use
       x="0"
       y="0"
       xlink:href="#g1074"
       id="use1319"
       transform="translate(-101.6,-135.46667)" />
    <path
       id="rect5190"
       style="fill:#fce6fa;stroke-width:0.0130587;stop-color:#000000"
       d="M 94.855979,11.124384 97.36509,9.4253739 c 0.16575,1.0205601 1.423069,3.4624801 4.24271,3.4317601 l -0.008,8.30953 c -2.819621,-0.0307 -4.20766,2.44303 -4.23491,3.63259 -5.25445,0 -4.856351,-6.2533 -4.631381,-8.02349 0.22497,-1.77019 0.817073,-4.76759 2.12227,-5.65138 z"
       sodipodi:nodetypes="scccczs" />
    <path
       id="path5245"
       style="fill:#fce6fa;stroke-width:0.0130587;stop-color:#000000"
       d="m 108.33406,22.744744 -2.50911,1.699 c -0.16575,-1.02055 -1.42307,-3.46247 -4.24271,-3.43175 l 0.008,-8.30953 c 2.81962,0.0307 4.20766,-2.44303 4.23491,-3.6325901 5.25445,0 4.85635,6.2533001 4.63138,8.0234801 -0.22497,1.77019 -0.81707,4.7676 -2.12227,5.65139 z"
       sodipodi:nodetypes="scccczs"
       inkscape:transform-center-x="12.453055"
       inkscape:transform-center-y="-0.17775166" />
    <use
       x="0"
       y="0"
       xlink:href="#use1319"
       id="use1321"
       transform="translate(-33.866667)" />
    <use
       x="0"
       y="0"
       xlink:href="#use1321"
       id="use1323"
       transform="translate(-33.866667)" />
    <use
       x="0"
       y="0"
       xlink:href="#g1074"
       id="use1195"
       transform="translate(-203.20001,-135.46667)" />
    <use
       x="0"
       y="0"
       xlink:href="#g1074"
       id="use1317"
       transform="translate(-237.06668,-135.46667)" />
    <path
       id="path1466"
       style="fill:#fce6fa;fill-opacity:1;stroke:none;stroke-width:0.2;stroke-linejoin:round;stroke-dasharray:none;stroke-opacity:1;stop-color:#000000"
       inkscape:transform-center-x="13.303722"
       inkscape:transform-center-y="-13.813146"
       d="m 149.0012,176.48369 c -0.007,-0.6575 -0.55388,-1.52332 -1.94717,-2.91662 -1.31134,-0.56416 -3.37114,-2.36809 -5.30924,-4.23488 l -6.26732,-6.27094 -0.008,-0.17931 c -0.002,-0.003 -0.004,-0.004 -0.006,-0.007 v 6.45955 h -6.2761 c 7e-4,6.8e-4 0.001,0.001 0.002,0.002 l 6.27507,6.33863 5.1e-4,0.11162 c 0.8867,0.96886 1.57991,1.74366 1.89963,2.12132 l 1.64951,1.65675 0.68471,2.46703 c 0,0 3.76876,-0.24316 6.26732,-2.51509 1.56161,-1.41995 3.04762,-1.93758 3.03548,-3.03341 z" />
    <path
       id="path1474"
       style="fill:#fce6fa;fill-opacity:1;stroke:none;stroke-width:0.2;stroke-linejoin:round;stroke-dasharray:none;stroke-opacity:1;stop-color:#000000"
       inkscape:transform-center-x="-0.00023552446"
       inkscape:transform-center-y="-0.0019446911"
       d="m 244.21559,155.79515 c -0.6575,0.007 -1.52332,0.55388 -2.91662,1.94717 -0.56416,1.31134 -2.36809,3.37114 -4.23488,5.30924 l -6.27094,6.26732 -0.17931,0.008 c -0.003,0.002 -0.004,0.004 -0.007,0.006 h 6.45955 v 6.2761 c 6.8e-4,-7e-4 10e-4,-0.001 0.002,-0.002 l 6.33863,-6.27507 0.11162,-5.1e-4 c 0.96886,-0.8867 1.74366,-1.57991 2.12132,-1.89963 l 1.65675,-1.64951 2.46703,-0.68471 c 0,0 -0.24316,-3.76876 -2.51509,-6.26732 -1.41995,-1.56161 -1.93758,-3.04762 -3.03341,-3.03548 z" />
    <path
       id="path1351"
       style="fill:#fce6fa;stroke-width:0.0130587;stop-color:#000000"
       d="m 331.92208,44.990847 2.50911,-1.699 c 0.16575,1.02055 1.42307,3.46247 4.24271,3.43176 l -0.008,8.30953 c -2.81962,-0.0307 -4.20766,2.44302 -4.23491,3.63258 -5.25445,0 -4.85635,-6.25329 -4.63138,-8.02348 0.22497,-1.77019 0.81707,-4.7676 2.12227,-5.65139 z"
       sodipodi:nodetypes="scccczs"
       inkscape:transform-center-x="-12.448121"
       inkscape:transform-center-y="0.17924695" />
    <path
       id="path5463"
       style="fill:#fce6fa;fill-opacity:1;stroke:none;stroke-width:0.2;stroke-linejoin:round;stroke-dasharray:none;stroke-opacity:1;stop-color:#000000"
       inkscape:transform-center-x="10.167377"
       inkscape:transform-center-y="-10.585612"
       d="m 38.095656,80.428777 c 0,0 3.76876,-0.24317 6.26732,-2.51509 2.49857,-2.27193 4.80376,-2.23457 1.08831,-5.95003 -1.31135,-0.56416 -3.37114,-2.36808 -5.30924,-4.23488 l -6.90863,-6.97839 0.62839,13.43329 c 0.8867,0.96886 1.57991,1.74367 1.89963,2.12132 l 1.64951,1.65675 z m -8.46284,-25.39544 c 0,0 -3.768752,0.24316 -6.267318,2.51509 -2.498566,2.27192 -4.803759,2.23457 -1.088305,5.95002 1.311344,0.56417 3.37114,2.36809 5.309236,4.23489 l 6.346387,6.35 -0.06615,-12.80491 c -0.8867,-0.96886 -1.57991,-1.74366 -1.899626,-2.12131 l -1.649511,-1.65675 z"
       sodipodi:nodetypes="csccccccccsccccccc" />
    <rect
       style="fill:none;stroke:#58de98;stroke-width:0.993262;stroke-linejoin:round;stroke-dasharray:none;stroke-opacity:1;stop-color:#000000"
       id="rect2423"
       width="25.396852"
       height="25.396852"
       x="4.2364788"
       y="4.2364807"
       ry="3.5985689" />
    <path
       id="path3161"
       style="fill:#ececb3;fill-opacity:1;stroke:none;stroke-width:0.0281882;stop-color:#000000"
       d="m -45.986601,101.62041 c -2.65526,0 -4.79299,2.13772 -4.79299,4.79299 v 24.23986 c 0,1.32764 0.53412,2.52573 1.40043,3.39204 h 5.2e-4 l 31.02395,-31.02394 c -9e-5,-9e-5 9e-5,-4.3e-4 0,-5.2e-4 -0.86632,-0.86632 -2.06441,-1.40043 -3.39204,-1.40043 z" />
    <path
       id="path3163"
       style="fill:#d5d5a2;fill-opacity:1;stroke:none;stroke-width:0.0281882;stop-color:#000000"
       d="m -18.354691,103.02136 -31.02395,31.02394 c 0.8663,0.86616 2.06454,1.40095 3.39204,1.40095 h 24.23987 c 2.65526,0 4.79299,-2.13772 4.79299,-4.79299 V 106.4134 c 0,-1.3275 -0.53479,-2.52575 -1.40095,-3.39204 z" />
    <rect
       style="fill:#fcfce6;fill-opacity:1;stroke:none;stroke-width:0.0222873;stroke-opacity:1;stop-color:#000000"
       id="rect3167"
       width="26.744741"
       height="26.744741"
       x="-47.239044"
       y="105.16094"
       ry="3.7895565" />
    <rect
       style="fill:none;stroke:#58de98;stroke-width:1.32292;stroke-linejoin:round;stroke-dasharray:none;stroke-opacity:1;stop-color:#000000"
       id="rect3169"
       width="33.825848"
       height="33.825848"
       x="-50.779587"
       y="101.62038"
       ry="4.7929029" />
    <rect
       style="fill:none;stroke:#de58c9;stroke-width:1.32291666;stroke-linejoin:round;stroke-dasharray:none;stroke-opacity:1;stop-color:#000000"
       id="rect3177"
       width="25.396852"
       height="25.396852"
       x="38.096825"
       y="4.2364774"
       ry="3.5985689" />
    <path
       id="path4980"
       style="fill:none;stroke:#de58c9;stroke-width:1.32291666;stroke-linejoin:round;stop-color:#000000;stroke-dasharray:none"
       d="m 101.60318,12.720534 c -1.997374,-0.001 -4.223553,-2.16785 -4.239661,-4.8617801 -0.01611,-2.69392 -1.604962,-3.59857 -3.598569,-3.59857 H 75.565235 c -1.993607,0 -3.598569,1.60497 -3.598569,3.59857 l -0.0016,9.0848501 -0.0016,9.08484 c 0,1.99361 1.604962,3.59857 3.598569,3.59857 H 93.76175 c 1.993607,0 3.582459,-0.90464 3.598569,-3.59857 0.01611,-2.69392 2.242285,-4.86038 4.239651,-4.86178"
       sodipodi:nodetypes="csssscssssc" />
    <path
       id="path5253"
       style="fill:none;stroke:#de58c9;stroke-width:1.32291666;stroke-linejoin:round;stop-color:#000000;stroke-dasharray:none"
       d="m 101.58686,21.148584 c 1.99738,0.001 4.22356,2.16786 4.23966,4.86179 0.0161,2.69392 1.60497,3.59856 3.59857,3.59856 h 18.19972 c 1.99361,0 3.59857,-1.60496 3.59857,-3.59856 l 0.002,-9.08485 0.002,-9.0848501 c 0,-1.9936 -1.60496,-3.59857 -3.59857,-3.59857 h -18.19972 c -1.9936,0 -3.58246,0.90465 -3.59857,3.59857 -0.0161,2.6939301 -2.24228,4.8603901 -4.23965,4.8617901"
       sodipodi:nodetypes="csssscssssc"
       inkscape:transform-center-x="2.1212367"
       inkscape:transform-center-y="-0.0090416565" />
    <path
       id="path5263"
       style="fill:none;stroke:#de58c9;stroke-width:1.32291666;stroke-linejoin:round;stop-color:#000000;stroke-dasharray:none"
       d="m 156.61191,33.869407 c 0.001,-1.997373 2.16786,-4.223553 4.86178,-4.239653 2.69393,-0.0161 3.59857,-1.60497 3.59857,-3.59857 V 7.8314639 c 0,-1.99361 -1.60496,-3.59857 -3.59857,-3.59857 l -9.08484,-0.002 -9.08485,-0.002 c -1.9936,0 -3.59857,1.60496 -3.59857,3.59857 V 26.027184 c 0,1.9936 0.90465,3.58246 3.59857,3.59857 2.69393,0.0161 4.86038,2.24228 4.86178,4.239643"
       sodipodi:nodetypes="csssscssssc"
       inkscape:transform-center-x="0.010934665"
       inkscape:transform-center-y="2.1164802" />
    <path
       id="path5273"
       style="fill:none;stroke:#de58c9;stroke-width:1.32291666;stroke-linejoin:round;stop-color:#000000;stroke-dasharray:none"
       d="m 182.05351,-0.0036861 c -10e-4,1.99738 -2.16786,4.22356 -4.86178,4.23966 -2.69393,0.0161 -3.59857,1.60497 -3.59857,3.59857 V 26.034264 c 0,1.99361 1.60496,3.59857 3.59857,3.59857 l 9.08484,0.002 9.08485,0.002 c 1.99361,0 3.59857,-1.60496 3.59857,-3.59857 V 7.8385439 c 0,-1.9936 -0.90465,-3.58246 -3.59857,-3.59857 -2.69392,-0.0161 -4.86038,-2.24228 -4.86178,-4.23964999524"
       sodipodi:nodetypes="csssscssssc"
       inkscape:transform-center-x="-0.010337341"
       inkscape:transform-center-y="-2.1166921" />
    <path
       id="path5583"
       style="fill:#fce6fa;fill-opacity:1;stroke:none;stroke-width:0.2;stroke-linejoin:round;stroke-dasharray:none;stroke-opacity:1;stop-color:#000000"
       inkscape:transform-center-x="-0.00023552446"
       inkscape:transform-center-y="-0.0019446911"
       d="m 88.902023,71.960757 c 0,0 0.24317,3.76876 2.5151,6.26732 2.27192,2.49857 2.23457,4.80376 5.95002,1.08831 0.56416,-1.31135 2.36809,-3.37114 4.234877,-5.30924 l 6.97839,-6.90863 -13.433287,0.62839 c -0.96886,0.8867 -1.74366,1.57991 -2.12132,1.89963 l -1.65674,1.64951 z m 25.395447,-8.46284 c 0,0 -0.24317,-3.76875 -2.5151,-6.26731 -2.27192,-2.49857 -2.23457,-4.80376 -5.95002,-1.08831 -0.56416,1.31134 -2.36809,3.37114 -4.23488,5.30924 l -6.349997,6.34638 12.804897,-0.0662 c 0.96886,-0.8867 1.74366,-1.57991 2.12132,-1.89962 l 1.65674,-1.64951 z"
       sodipodi:nodetypes="csccccccccsccccccc" />
    <path
       id="path469"
       style="fill:#fce6fa;stroke-width:0.0130587;stop-color:#000000"
       d="m 315.92363,6.7429839 -1.699,-2.50911 c 1.02055,-0.16575 3.46248,-1.42307 3.43176,-4.24271 l 8.30953,0.008000005 C 325.93522,2.8187839 328.40894,4.2068239 329.5985,4.2340739 c 0,5.25445 -6.25329,4.85635 -8.02348,4.63138 -1.77019,-0.22497 -4.7676,-0.81707 -5.65139,-2.12227 z"
       sodipodi:nodetypes="scccczs"
       inkscape:transform-center-x="-0.17911034"
       inkscape:transform-center-y="-12.448974" />
    <path
       id="path471"
       style="fill:#fce6fa;stroke-width:0.0130587;stop-color:#000000"
       d="m 311.54277,22.741624 -2.50911,1.699 c -0.16575,-1.02055 -1.42307,-3.46247 -4.24271,-3.43176 l 0.008,-8.30953 c 2.81962,0.0307 4.20766,-2.44302 4.23491,-3.6325801 5.25445,0 4.85635,6.2532901 4.63138,8.0234801 -0.22497,1.77019 -0.81707,4.7676 -2.12227,5.65139 z"
       sodipodi:nodetypes="scccczs"
       inkscape:transform-center-x="12.448444"
       inkscape:transform-center-y="-0.17951069" />
    <path
       id="path354"
       style="fill:none;stroke:#de58c9;stroke-width:1.32291666;stroke-linejoin:round;stop-color:#000000;stroke-dasharray:none"
       d="m 237.06986,12.720534 c -1.99738,-0.001 -4.22356,-2.16785 -4.23966,-4.8617801 -0.0161,-2.69392 -1.60497,-3.59857 -3.59857,-3.59857 m -18.19972,0 c -1.99361,0 -3.59857,1.60497 -3.59857,3.59857 l -0.002,9.0848501 -0.002,9.08484 c 0,1.99361 1.60496,3.59857 3.59857,3.59857 h 18.19972 c 1.9936,0 3.58246,-0.90464 3.59857,-3.59857 0.0161,-2.69392 2.24228,-4.86038 4.23965,-4.86178 M 215.92018,-0.0036861 c -10e-4,1.99738 -2.16786,4.22356 -4.86179,4.23966 -2.69392,0.0161 -3.59856,1.60497 -3.59856,3.59857 V 26.034264 c 0,1.99361 1.60496,3.59857 3.59857,3.59857 l 9.08484,0.002 9.08485,0.002 c 1.99361,0 3.59857,-1.60496 3.59857,-3.59857 m 0,-18.1997201 c 0,-1.9936 -0.90465,-3.58246 -3.59857,-3.59857 -2.69392,-0.0161 -4.86038,-2.24228 -4.86178,-4.23964999524"
       sodipodi:nodetypes="cscccccssscccssccccccc" />
    <path
       id="path461"
       style="fill:none;stroke:#de58c9;stroke-width:1.32291666;stroke-linejoin:round;stop-color:#000000;stroke-dasharray:none"
       d="m 258.21172,33.870037 c 10e-4,-1.997383 2.16786,-4.223563 4.86178,-4.239663 2.69392,-0.0161 3.59857,-1.60497 3.59857,-3.59857 m 0,-18.1997201 c 0,-1.99361 -1.60496,-3.59857 -3.59857,-3.59857 l -9.08484,-0.002 -9.08485,-0.002 c -1.99361,0 -3.59857,1.60496 -3.59857,3.59857 V 26.027804 c 0,1.9936 0.90465,3.58246 3.59857,3.59857 2.69392,0.0161 4.86038,2.24228 4.86178,4.239653 m 21.17035,-21.145673 c -1.99738,-0.001 -4.22356,-2.16786 -4.23966,-4.8617901 -0.0161,-2.69392 -1.60497,-3.59856 -3.59857,-3.59856 h -18.19972 c -1.99361,0 -3.59857,1.60496 -3.59857,3.59857 l -0.002,9.0848401 -0.002,9.08485 c 0,1.99361 1.60496,3.59857 3.59857,3.59857 m 18.19972,0 c 1.9936,0 3.58246,-0.90465 3.59857,-3.59857 0.0161,-2.69392 2.24228,-4.86038 4.23965,-4.86178"
       sodipodi:nodetypes="cscccccssscccssccccccc"
       inkscape:transform-center-x="-2.1163021"
       inkscape:transform-center-y="2.1168919" />
    <path
       id="path499"
       style="fill:#fce6fa;stroke-width:0.0130587;stop-color:#000000"
       d="m 365.78934,11.124384 2.50911,-1.6990101 c 0.16575,1.0205601 1.42307,3.4624801 4.24271,3.4317601 l -0.008,8.30953 c -2.81962,-0.0307 -4.20766,2.44303 -4.23491,3.63259 -5.25445,0 -4.85635,-6.2533 -4.63138,-8.02349 0.22497,-1.77019 0.81707,-4.76759 2.12227,-5.65138 z"
       sodipodi:nodetypes="scccczs" />
    <path
       id="path503"
       style="fill:#fce6fa;stroke-width:0.0130587;stop-color:#000000"
       d="m 345.40075,22.744744 -2.50911,1.699 c -0.16575,-1.02055 -1.42307,-3.46247 -4.24271,-3.43175 l 0.008,-8.30953 c 2.81962,0.0307 4.20766,-2.44303 4.23491,-3.6325901 5.25445,0 4.85635,6.2533001 4.63138,8.0234801 -0.22497,1.77019 -0.81707,4.7676 -2.12227,5.65139 z"
       sodipodi:nodetypes="scccczs"
       inkscape:transform-center-x="12.453055"
       inkscape:transform-center-y="-0.17775166" />
    <path
       id="path520"
       style="fill:#fce6fa;stroke-width:0.0130587;stop-color:#000000"
       d="m 395.2719,27.128854 1.699,2.50911 c -1.02055,0.16575 -3.46247,1.42307 -3.43175,4.242713 l -8.30953,-0.008 c 0.0307,-2.819623 -2.44303,-4.207663 -3.63259,-4.234913 0,-5.25445 6.2533,-4.85635 8.02348,-4.63138 1.77019,0.22497 4.7676,0.81707 5.65139,2.12227 z"
       sodipodi:nodetypes="scccczs" />
    <path
       id="path522"
       style="fill:#fce6fa;stroke-width:0.0130587;stop-color:#000000"
       d="m 383.65153,6.7402639 -1.699,-2.50911 c 1.02055,-0.16575 3.46247,-1.42307 3.43175,-4.24271 l 8.30953,0.008 c -0.0307,2.81962 2.44303,4.20766 3.63259,4.23491 0,5.25445 -6.2533,4.85635 -8.02348,4.63138 -1.77019,-0.22497 -4.7676,-0.81707 -5.65139,-2.12227 z"
       sodipodi:nodetypes="scccczs"
       inkscape:transform-center-x="-0.17774866"
       inkscape:transform-center-y="-12.453055" />
    <path
       id="path780"
       style="fill:#fce6fa;fill-opacity:1;stroke:none;stroke-width:0.2;stroke-linejoin:round;stroke-dasharray:none;stroke-opacity:1;stop-color:#000000"
       inkscape:transform-center-x="-0.00023552446"
       inkscape:transform-center-y="-0.0019446911"
       d="m 311.94893,54.195127 c -0.6575,0.007 -1.52332,0.55388 -2.91662,1.94717 -0.56416,1.31134 -2.36809,3.37114 -4.23488,5.30924 l -6.27094,6.26732 -0.17931,0.008 c -0.003,0.002 -0.004,0.004 -0.007,0.006 h 6.45983 v 6.2761 c 6.8e-4,-7e-4 0.001,-10e-4 0.002,-0.002 l 6.33863,-6.27507 0.11162,-5.1e-4 c 0.96886,-0.8867 1.74366,-1.57991 2.12132,-1.89963 l 1.65675,-1.64951 2.46703,-0.68471 c 0,0 -0.24316,-3.76876 -2.51509,-6.26732 -1.41995,-1.56161 -1.93758,-3.04762 -3.03341,-3.03548 z" />
    <path
       id="path788"
       style="fill:#fce6fa;fill-opacity:1;stroke:none;stroke-width:0.2;stroke-linejoin:round;stroke-dasharray:none;stroke-opacity:1;stop-color:#000000"
       inkscape:transform-center-x="-13.812966"
       inkscape:transform-center-y="-13.301934"
       d="m 162.18091,182.87128 c 0.6575,-0.007 1.52332,-0.55388 2.91662,-1.94717 0.56416,-1.31134 2.36809,-3.37114 4.23488,-5.30924 l 6.27094,-6.26732 0.17931,-0.008 c 0.003,-0.002 0.004,-0.004 0.007,-0.006 h -6.45955 v -6.2761 c -6.8e-4,7e-4 -0.001,0.001 -0.002,0.002 l -6.33863,6.27507 -0.11162,5.1e-4 c -0.96886,0.8867 -1.74366,1.57991 -2.12132,1.89963 l -1.65675,1.64951 -2.46703,0.68471 c 0,0 0.24316,3.76876 2.51509,6.26732 1.41995,1.56161 1.93758,3.04762 3.03341,3.03548 z" />
    <path
       id="path1372"
       style="fill:#fce6fa;stroke-width:0.0130587;stop-color:#000000"
       d="m 192.07474,60.988877 1.699,2.50911 c -1.02055,0.16575 -3.46247,1.42307 -3.43176,4.24271 l -8.30953,-0.008 c 0.0307,-2.81962 -2.44302,-4.20766 -3.63258,-4.23491 0,-5.25445 6.2533,-4.85635 8.02348,-4.63138 1.77019,0.22497 4.7676,0.81707 5.65139,2.12227 z"
       sodipodi:nodetypes="scccczs"
       inkscape:transform-center-x="0.17964466"
       inkscape:transform-center-y="12.448299" />
    <path
       id="path1374"
       style="fill:#fce6fa;fill-opacity:1;stroke:none;stroke-width:0.2;stroke-linejoin:round;stroke-dasharray:none;stroke-opacity:1;stop-color:#000000"
       inkscape:transform-center-x="-0.00023552446"
       inkscape:transform-center-y="-0.0019446911"
       d="m 176.48225,54.195137 c -0.6575,0.007 -1.52332,0.55388 -2.91662,1.94717 -0.56416,1.31134 -2.36809,3.37114 -4.23488,5.30924 l -6.27094,6.26732 -0.17931,0.008 c -0.003,0.002 -0.004,0.004 -0.007,0.006 h 6.45955 v 6.2761 c 6.8e-4,-7e-4 0.001,-0.001 0.002,-0.002 l 6.33863,-6.27507 0.11162,-5.1e-4 c 0.96886,-0.8867 1.74366,-1.57991 2.12132,-1.89963 l 1.65675,-1.64951 2.46703,-0.68471 c 0,0 -0.24316,-3.76876 -2.51509,-6.26732 -1.41995,-1.56161 -1.93758,-3.04762 -3.03341,-3.03548 z" />
    <path
       id="path1378"
       style="fill:#fce6fa;stroke-width:0.0130587;stop-color:#000000"
       d="m 243.81037,90.474357 -2.50911,1.699 c -0.16575,-1.02055 -1.42307,-3.46247 -4.24271,-3.43176 l 0.008,-8.30953 c 2.81962,0.0307 4.20766,-2.44302 4.23491,-3.63258 5.25445,0 4.85635,6.2533 4.63138,8.02348 -0.22497,1.77019 -0.81707,4.7676 -2.12227,5.65139 z"
       sodipodi:nodetypes="scccczs"
       inkscape:transform-center-x="12.448211"
       inkscape:transform-center-y="-0.17967588" />
    <path
       id="path1380"
       style="fill:#fce6fa;fill-opacity:1;stroke:none;stroke-width:0.2;stroke-linejoin:round;stroke-dasharray:none;stroke-opacity:1;stop-color:#000000"
       inkscape:transform-center-x="13.302389"
       inkscape:transform-center-y="-13.814531"
       d="m 250.60411,74.881867 c -0.007,-0.6575 -0.55388,-1.52332 -1.94717,-2.91662 -1.31134,-0.56416 -3.37114,-2.36809 -5.30924,-4.23488 l -6.26732,-6.27094 -0.008,-0.17931 c -0.002,-0.003 -0.004,-0.004 -0.006,-0.007 v 6.45955 h -6.2761 c 7e-4,6.8e-4 0.001,10e-4 0.002,0.002 l 6.27507,6.33863 5.1e-4,0.11162 c 0.8867,0.96886 1.57991,1.74366 1.89963,2.12132 l 1.64951,1.65675 0.68471,2.46703 c 0,0 3.76876,-0.24316 6.26732,-2.51509 1.56161,-1.41995 3.04762,-1.93758 3.03548,-3.03341 z" />
    <path
       id="path1384"
       style="fill:#fce6fa;stroke-width:0.0130587;stop-color:#000000"
       d="m 146.59068,74.477857 -1.699,-2.50911 c 1.02055,-0.16575 3.46247,-1.42307 3.43176,-4.24271 l 8.30953,0.008 c -0.0307,2.81962 2.44302,4.20766 3.63258,4.23491 0,5.25445 -6.2533,4.85635 -8.02348,4.63138 -1.77019,-0.22497 -4.7676,-0.81707 -5.65139,-2.12227 z"
       sodipodi:nodetypes="scccczs"
       inkscape:transform-center-x="-0.17924187"
       inkscape:transform-center-y="-12.447603" />
    <path
       id="path1386"
       style="fill:#fce6fa;fill-opacity:1;stroke:none;stroke-width:0.2;stroke-linejoin:round;stroke-dasharray:none;stroke-opacity:1;stop-color:#000000"
       inkscape:transform-center-x="-13.814097"
       inkscape:transform-center-y="-13.301782"
       d="m 162.18317,81.271597 c 0.6575,-0.007 1.52332,-0.55388 2.91662,-1.94717 0.56416,-1.31134 2.36809,-3.37114 4.23488,-5.30924 l 6.27094,-6.26732 0.17931,-0.008 c 0.003,-0.002 0.004,-0.004 0.007,-0.006 h -6.45955 v -6.2761 c -6.8e-4,7e-4 -0.001,0.001 -0.002,0.002 l -6.33863,6.27507 -0.11162,5.1e-4 c -0.96886,0.8867 -1.74366,1.57991 -2.12132,1.89963 l -1.65675,1.64951 -2.46703,0.68471 c 0,0 0.24316,3.76876 2.51509,6.26732 1.41995,1.56161 1.93758,3.04762 3.03341,3.03548 z" />
    <path
       id="path1390"
       style="fill:#fce6fa;stroke-width:0.0130587;stop-color:#000000"
       d="m 230.32195,44.991047 2.50911,-1.699 c 0.16575,1.02055 1.42307,3.46247 4.24271,3.43176 l -0.008,8.30953 c -2.81962,-0.0307 -4.20766,2.44302 -4.23491,3.63258 -5.25445,0 -4.85635,-6.2533 -4.63138,-8.02348 0.22497,-1.77019 0.81707,-4.7676 2.12227,-5.65139 z"
       sodipodi:nodetypes="scccczs"
       inkscape:transform-center-x="-12.447942"
       inkscape:transform-center-y="0.17929083" />
    <path
       id="path1392"
       style="fill:#fce6fa;fill-opacity:1;stroke:none;stroke-width:0.2;stroke-linejoin:round;stroke-dasharray:none;stroke-opacity:1;stop-color:#000000"
       inkscape:transform-center-x="-13.302122"
       inkscape:transform-center-y="13.814146"
       d="m 223.52821,60.583537 c 0.007,0.6575 0.55388,1.52332 1.94717,2.91662 1.31134,0.56416 3.37114,2.36809 5.30924,4.23488 l 6.26732,6.27094 0.008,0.17931 c 0.002,0.003 0.004,0.004 0.006,0.007 v -6.45955 h 6.2761 c -7e-4,-6.8e-4 -0.001,-0.001 -0.002,-0.002 l -6.27507,-6.33863 -5.1e-4,-0.11162 c -0.8867,-0.96886 -1.57991,-1.74366 -1.89963,-2.12132 l -1.64951,-1.65675 -0.68471,-2.46703 c 0,0 -3.76876,0.24316 -6.26732,2.51509 -1.56161,1.41995 -3.04762,1.93758 -3.03548,3.03341 z" />
    <path
       id="path1420"
       style="fill:#fce6fa;stroke-width:0.0130587;stop-color:#000000"
       d="m 349.79061,40.610057 -1.699,-2.50911 c 1.02055,-0.16575 3.46247,-1.42307 3.43176,-4.24271 l 8.30953,0.008 c -0.0307,2.81962 2.44302,4.20766 3.63258,4.23491 0,5.25445 -6.25329,4.85635 -8.02348,4.63138 -1.77019,-0.22497 -4.7676,-0.81707 -5.65139,-2.12227 z"
       sodipodi:nodetypes="scccczs"
       inkscape:transform-center-x="-0.17925279"
       inkscape:transform-center-y="-12.448227" />
    <path
       id="path1422"
       style="fill:#fce6fa;fill-opacity:1;stroke:none;stroke-width:0.2;stroke-linejoin:round;stroke-dasharray:none;stroke-opacity:1;stop-color:#000000"
       inkscape:transform-center-x="-13.302276"
       inkscape:transform-center-y="13.813842"
       d="m 358.99489,60.583207 c 0.007,0.6575 0.55388,1.52332 1.94717,2.91662 1.31134,0.56416 3.37114,2.36809 5.30924,4.23488 l 6.26732,6.27094 0.008,0.17931 c 0.002,0.003 0.004,0.004 0.006,0.007 v -6.45983 h 6.2761 c -7e-4,-6.8e-4 -10e-4,-0.001 -0.002,-0.002 l -6.27507,-6.33863 -5.1e-4,-0.11162 c -0.8867,-0.96886 -1.57991,-1.74366 -1.89963,-2.12132 l -1.64951,-1.65675 -0.68471,-2.46703 c 0,0 -3.76876,0.24316 -6.26732,2.51509 -1.56161,1.41995 -3.04762,1.93758 -3.03548,3.03341 z" />
    <path
       id="path1426"
       style="fill:#fce6fa;stroke-width:0.0130587;stop-color:#000000"
       d="m 277.6762,90.473757 -2.50911,1.699 c -0.16575,-1.02055 -1.42307,-3.46247 -4.24271,-3.43176 l 0.008,-8.30953 c 2.81962,0.0307 4.20766,-2.44302 4.23491,-3.63258 5.25445,0 4.85635,6.25329 4.63138,8.02348 -0.22497,1.77019 -0.81707,4.7676 -2.12227,5.65139 z"
       sodipodi:nodetypes="scccczs"
       inkscape:transform-center-x="12.448372"
       inkscape:transform-center-y="-0.17981323" />
    <path
       id="path1428"
       style="fill:#fce6fa;fill-opacity:1;stroke:none;stroke-width:0.2;stroke-linejoin:round;stroke-dasharray:none;stroke-opacity:1;stop-color:#000000"
       inkscape:transform-center-x="-13.813696"
       inkscape:transform-center-y="-13.302836"
       d="m 297.64935,81.269477 c 0.6575,-0.007 1.52332,-0.55388 2.91662,-1.94717 0.56416,-1.31134 2.36809,-3.37114 4.23488,-5.30924 l 6.27094,-6.26732 0.17931,-0.008 c 0.003,-0.002 0.004,-0.004 0.007,-0.006 h -6.45983 v -6.2761 c -6.8e-4,7e-4 -10e-4,10e-4 -0.002,0.002 l -6.33863,6.27507 -0.11162,5.1e-4 c -0.96886,0.8867 -1.74366,1.57991 -2.12132,1.89963 l -1.65675,1.64951 -2.46703,0.68471 c 0,0 0.24316,3.76876 2.51509,6.26732 1.41995,1.56161 1.93758,3.04762 3.03341,3.03548 z" />
    <path
       id="path1432"
       style="fill:#fce6fa;stroke-width:0.0130587;stop-color:#000000"
       d="m 214.3252,196.45557 -1.699,2.50911 c 1.02055,0.16575 3.46247,1.42307 3.43176,4.2427 l 8.30953,-0.008 c -0.0307,-2.81961 2.44302,-4.20765 3.63258,-4.2349 0,-5.25445 -6.25329,-4.85635 -8.02348,-4.63138 -1.77019,0.22497 -4.7676,0.81707 -5.65139,2.12227 z"
       sodipodi:nodetypes="scccczs"
       inkscape:transform-center-x="-0.17980822"
       inkscape:transform-center-y="12.448637" />
    <path
       id="path1434"
       style="fill:#fce6fa;fill-opacity:1;stroke:none;stroke-width:0.2;stroke-linejoin:round;stroke-dasharray:none;stroke-opacity:1;stop-color:#000000"
       inkscape:transform-center-x="-13.302836"
       inkscape:transform-center-y="-13.813427"
       d="m 223.52948,176.48242 c 0.007,-0.6575 0.55388,-1.52332 1.94717,-2.91662 1.31134,-0.56416 3.37114,-2.36809 5.30924,-4.23488 l 6.26732,-6.27094 0.008,-0.17931 c 0.002,-0.003 0.004,-0.004 0.006,-0.007 v 6.45983 h 6.27611 c -7e-4,6.8e-4 -0.001,0.001 -0.002,0.002 l -6.27508,6.33863 -5.1e-4,0.11162 c -0.8867,0.96886 -1.57991,1.74366 -1.89963,2.12132 l -1.64951,1.65675 -0.68471,2.46703 c 0,0 -3.76876,-0.24316 -6.26732,-2.51509 -1.56161,-1.41995 -3.04762,-1.93758 -3.03548,-3.03341 z" />
    <path
       id="path1438"
       style="fill:#fce6fa;stroke-width:0.0130587;stop-color:#000000"
       d="m 277.67704,90.474347 -2.50911,1.699 c -0.16575,-1.02055 -1.42307,-3.46247 -4.24271,-3.43176 l 0.008,-8.30953 c 2.81962,0.0307 4.20766,-2.44302 4.23491,-3.63258 5.25445,0 4.85635,6.2533 4.63138,8.02348 -0.22497,1.77019 -0.81707,4.7676 -2.12227,5.65139 z"
       sodipodi:nodetypes="scccczs"
       inkscape:transform-center-x="12.448211"
       inkscape:transform-center-y="-0.17967588" />
    <path
       id="path1440"
       style="fill:#fce6fa;stroke-width:0.0130587;stop-color:#000000"
       d="m 331.92196,44.991037 2.50911,-1.699 c 0.16575,1.02055 1.42307,3.46247 4.24271,3.43176 l -0.008,8.30953 c -2.81962,-0.0307 -4.20766,2.44302 -4.23491,3.63258 -5.25445,0 -4.85635,-6.2533 -4.63138,-8.02348 0.22497,-1.77019 0.81707,-4.7676 2.12227,-5.65139 z"
       sodipodi:nodetypes="scccczs"
       inkscape:transform-center-x="-12.447942"
       inkscape:transform-center-y="0.17929083" />
    <path
       id="path1470"
       style="fill:#fce6fa;fill-opacity:1;stroke:none;stroke-width:0.2;stroke-linejoin:round;stroke-dasharray:none;stroke-opacity:1;stop-color:#000000"
       inkscape:transform-center-x="-13.813951"
       inkscape:transform-center-y="-13.302731"
       d="m 263.7829,149.00304 c 0.6575,-0.007 1.52332,-0.55388 2.91662,-1.94717 0.56416,-1.31134 2.36809,-3.37114 4.23488,-5.30924 l 6.27093,-6.26732 0.17931,-0.008 c 0.003,-0.002 0.004,-0.004 0.007,-0.006 h -6.45954 v -6.2761 c -6.8e-4,7e-4 -10e-4,0.001 -0.002,0.002 l -6.33863,6.27507 -0.11162,5.1e-4 c -0.96886,0.8867 -1.74366,1.57991 -2.12132,1.89963 l -1.65675,1.64951 -2.46703,0.68471 c 0,0 0.24316,3.76876 2.51509,6.26732 1.41995,1.56161 1.93758,3.04762 3.03341,3.03548 z" />
    <path
       id="path1479"
       style="fill:#fce6fa;fill-opacity:1;stroke:none;stroke-width:0.2;stroke-linejoin:round;stroke-dasharray:none;stroke-opacity:1;stop-color:#000000"
       inkscape:transform-center-x="-0.0019435244"
       inkscape:transform-center-y="0.00023530888"
       d="m 47.405376,142.61711 c -0.007,-0.6575 -0.55388,-1.52332 -1.94717,-2.91662 -1.31134,-0.56416 -3.37114,-2.36809 -5.30924,-4.23488 l -6.26732,-6.27094 -0.008,-0.17931 c -0.002,-0.003 -0.004,-0.004 -0.006,-0.007 v 6.45955 h -6.276097 c 7e-4,6.8e-4 0.001,0.001 0.002,0.002 l 6.275067,6.33863 5.1e-4,0.11162 c 0.8867,0.96886 1.57991,1.74366 1.89963,2.12132 l 1.64951,1.65675 0.68471,2.46703 c 0,0 3.76876,-0.24316 6.26732,-2.51509 1.56161,-1.41995 3.04762,-1.93758 3.03548,-3.03341 z" />
    <path
       id="path1481"
       style="fill:#fce6fa;fill-opacity:1;stroke:none;stroke-width:0.2;stroke-linejoin:round;stroke-dasharray:none;stroke-opacity:1;stop-color:#000000"
       inkscape:transform-center-x="-13.302728"
       inkscape:transform-center-y="13.813954"
       d="m 54.197486,162.18442 c 0.007,0.6575 0.55388,1.52332 1.94717,2.91662 1.31134,0.56416 3.37114,2.36809 5.30924,4.23488 l 6.267317,6.27093 0.008,0.17931 c 0.002,0.003 0.004,0.004 0.006,0.007 v -6.45954 h 6.2761 c -7e-4,-6.8e-4 -0.001,-0.001 -0.002,-0.002 l -6.27507,-6.33863 -5.1e-4,-0.11162 c -0.8867,-0.96886 -1.57991,-1.74366 -1.899627,-2.12132 l -1.64951,-1.65675 -0.68471,-2.46703 c 0,0 -3.76876,0.24316 -6.26732,2.51509 -1.56161,1.41995 -3.04762,1.93758 -3.03548,3.03341 z" />
    <path
       id="path1486"
       style="fill:#fce6fa;fill-opacity:1;stroke:none;stroke-width:0.2;stroke-linejoin:round;stroke-dasharray:none;stroke-opacity:1;stop-color:#000000"
       inkscape:transform-center-x="-13.813918"
       inkscape:transform-center-y="-13.303774"
       d="m 128.31513,149.00202 c 0.6575,-0.007 1.52332,-0.55388 2.91662,-1.94717 0.56416,-1.31134 2.36809,-3.37114 4.23488,-5.30924 l 6.27094,-6.26732 0.17931,-0.008 c 0.003,-0.002 0.004,-0.004 0.007,-0.006 h -6.45955 v -6.2761 c -6.8e-4,7e-4 -10e-4,0.001 -0.002,0.002 l -6.33863,6.27507 -0.11162,5.1e-4 c -0.96886,0.8867 -1.74366,1.57991 -2.12132,1.89963 l -1.65675,1.64951 -2.46703,0.68471 c 0,0 0.24316,3.76876 2.51509,6.26732 1.41995,1.56161 1.93758,3.04762 3.03341,3.03548 z" />
    <path
       id="path1488"
       style="fill:#fce6fa;fill-opacity:1;stroke:none;stroke-width:0.2;stroke-linejoin:round;stroke-dasharray:none;stroke-opacity:1;stop-color:#000000"
       inkscape:transform-center-x="-13.302706"
       inkscape:transform-center-y="13.812914"
       d="m 121.92754,162.18173 c 0.007,0.6575 0.55388,1.52332 1.94717,2.91662 1.31134,0.56416 3.37114,2.36809 5.30924,4.23488 l 6.26732,6.27094 0.008,0.17931 c 0.002,0.003 0.004,0.004 0.006,0.007 v -6.45955 h 6.2761 c -7e-4,-6.8e-4 -10e-4,-0.001 -0.002,-0.002 l -6.27507,-6.33863 -5.1e-4,-0.11162 c -0.8867,-0.96886 -1.57991,-1.74366 -1.89963,-2.12132 l -1.64951,-1.65675 -0.68471,-2.46703 c 0,0 -3.76876,0.24316 -6.26732,2.51509 -1.56161,1.41995 -3.04762,1.93758 -3.03548,3.03341 z" />
    <path
       id="path1492"
       style="fill:#fce6fa;fill-opacity:1;stroke:none;stroke-width:0.2;stroke-linejoin:round;stroke-dasharray:none;stroke-opacity:1;stop-color:#000000"
       inkscape:transform-center-x="-13.302736"
       inkscape:transform-center-y="13.813947"
       d="m 155.79527,128.31606 c 0.007,0.6575 0.55388,1.52332 1.94717,2.91662 1.31134,0.56416 3.37114,2.36809 5.30924,4.23488 l 6.26732,6.27094 0.008,0.17931 c 0.002,0.003 0.004,0.004 0.006,0.007 v -6.45955 h 6.2761 c -7e-4,-6.8e-4 -0.001,-0.001 -0.002,-0.002 l -6.27507,-6.33863 -5.1e-4,-0.11162 c -0.8867,-0.96886 -1.57991,-1.74366 -1.89963,-2.12132 l -1.64951,-1.65675 -0.68471,-2.46703 c 0,0 -3.76876,0.24316 -6.26732,2.51509 -1.56161,1.41995 -3.04762,1.93758 -3.03548,3.03341 z" />
    <path
       id="path1494"
       style="fill:#fce6fa;fill-opacity:1;stroke:none;stroke-width:0.2;stroke-linejoin:round;stroke-dasharray:none;stroke-opacity:1;stop-color:#000000"
       inkscape:transform-center-x="-0.00023552446"
       inkscape:transform-center-y="-0.0019446911"
       d="m 142.61556,121.92847 c -0.6575,0.007 -1.52332,0.55388 -2.91662,1.94717 -0.56416,1.31134 -2.36809,3.37114 -4.23488,5.30924 l -6.27094,6.26732 -0.17931,0.008 c -0.003,0.002 -0.004,0.004 -0.007,0.006 h 6.45955 v 6.2761 c 6.8e-4,-7e-4 0.001,-0.001 0.002,-0.002 l 6.33863,-6.27507 0.11162,-5.1e-4 c 0.96886,-0.8867 1.74366,-1.57991 2.12132,-1.89963 l 1.65675,-1.64951 2.46703,-0.68471 c 0,0 -0.24316,-3.76876 -2.51509,-6.26732 -1.41995,-1.56161 -1.93758,-3.04762 -3.03341,-3.03548 z" />
    <path
       id="path1498"
       style="fill:#fce6fa;fill-opacity:1;stroke:none;stroke-width:0.2;stroke-linejoin:round;stroke-dasharray:none;stroke-opacity:1;stop-color:#000000"
       inkscape:transform-center-x="13.813911"
       inkscape:transform-center-y="13.303771"
       d="m 176.48122,155.79621 c -0.6575,0.007 -1.52332,0.55388 -2.91662,1.94717 -0.56416,1.31134 -2.36809,3.37114 -4.23488,5.30924 l -6.27094,6.26732 -0.17931,0.008 c -0.003,0.002 -0.004,0.004 -0.007,0.006 h 6.45955 v 6.2761 c 6.8e-4,-7e-4 0.001,-0.001 0.002,-0.002 l 6.33863,-6.27507 0.11162,-5.1e-4 c 0.96886,-0.8867 1.74366,-1.57991 2.12132,-1.89963 l 1.65675,-1.64951 2.46703,-0.68471 c 0,0 -0.24316,-3.76876 -2.51509,-6.26732 -1.41995,-1.56161 -1.93758,-3.04762 -3.03341,-3.03548 z" />
    <path
       id="path1500"
       style="fill:#fce6fa;fill-opacity:1;stroke:none;stroke-width:0.2;stroke-linejoin:round;stroke-dasharray:none;stroke-opacity:1;stop-color:#000000"
       inkscape:transform-center-x="13.302699"
       inkscape:transform-center-y="-13.812917"
       d="m 182.86881,142.6165 c -0.007,-0.6575 -0.55388,-1.52332 -1.94717,-2.91662 -1.31134,-0.56416 -3.37114,-2.36809 -5.30924,-4.23488 l -6.26732,-6.27094 -0.008,-0.17931 c -0.002,-0.003 -0.004,-0.004 -0.006,-0.007 v 6.45955 h -6.2761 c 7e-4,6.8e-4 0.001,0.001 0.002,0.002 l 6.27507,6.33863 5.1e-4,0.11162 c 0.8867,0.96886 1.57991,1.74366 1.89963,2.12132 l 1.64951,1.65675 0.68471,2.46703 c 0,0 3.76876,-0.24316 6.26732,-2.51509 1.56161,-1.41995 3.04762,-1.93758 3.03548,-3.03341 z" />
    <path
       id="path406"
       style="fill:#fce6fa;stroke-width:0.0130587;stop-color:#000000"
       d="m 78.857343,176.07785 -1.699,-2.50911 c 1.02055,-0.16575 3.46247,-1.42307 3.43176,-4.24271 l 8.30953,0.008 c -0.0307,2.81962 2.44302,4.20766 3.63258,4.23491 0,5.25445 -6.2533,4.85635 -8.02348,4.63138 -1.77019,-0.22497 -4.7676,-0.81707 -5.65139,-2.12227 z"
       sodipodi:nodetypes="scccczs"
       inkscape:transform-center-x="-0.17924187"
       inkscape:transform-center-y="-12.447603" />
    <path
       id="path408"
       style="fill:#fce6fa;fill-opacity:1;stroke:none;stroke-width:0.2;stroke-linejoin:round;stroke-dasharray:none;stroke-opacity:1;stop-color:#000000"
       inkscape:transform-center-x="13.814093"
       inkscape:transform-center-y="-13.301782"
       d="m 74.882243,182.87159 c -0.6575,-0.007 -1.52332,-0.55388 -2.91662,-1.94717 -0.56416,-1.31134 -2.36809,-3.37114 -4.23488,-5.30924 l -6.270937,-6.26732 -0.17931,-0.008 c -0.003,-0.002 -0.004,-0.004 -0.007,-0.006 h 6.459547 v -6.2761 c 6.8e-4,7e-4 0.001,0.001 0.002,0.002 l 6.33863,6.27507 0.11162,5.1e-4 c 0.96886,0.8867 1.74366,1.57991 2.12132,1.89963 l 1.65675,1.64951 2.46703,0.68471 c 0,0 -0.24316,3.76876 -2.51509,6.26732 -1.41995,1.56161 -1.93758,3.04762 -3.03341,3.03548 z" />
    <path
       id="path519"
       style="fill:#fce6fa;stroke-width:0.0130587;stop-color:#000000"
       d="m 433.52157,112.72466 2.50911,-1.699 c 0.16575,1.02055 1.42307,3.46247 4.24271,3.43176 l -0.008,8.30953 c -2.81962,-0.0307 -4.20766,2.44302 -4.23491,3.63258 -5.25445,0 -4.85635,-6.2533 -4.63138,-8.02348 0.22497,-1.77019 0.81707,-4.7676 2.12227,-5.65139 z"
       sodipodi:nodetypes="scccczs"
       inkscape:transform-center-x="-12.447606"
       inkscape:transform-center-y="0.17924091" />
    <path
       id="path521"
       style="fill:#fce6fa;fill-opacity:1;stroke:none;stroke-width:0.2;stroke-linejoin:round;stroke-dasharray:none;stroke-opacity:1;stop-color:#000000"
       inkscape:transform-center-x="-13.301785"
       inkscape:transform-center-y="-13.814094"
       d="m 426.72783,108.74956 c 0.007,-0.6575 0.55388,-1.52332 1.94717,-2.91662 1.31134,-0.56416 3.37114,-2.36809 5.30924,-4.23488 l 6.26732,-6.270933 0.008,-0.17931 c 0.002,-0.003 0.004,-0.004 0.006,-0.007 v 6.459543 h 6.2761 c -7e-4,6.8e-4 -10e-4,0.001 -0.002,0.002 l -6.27507,6.33863 -5.1e-4,0.11162 c -0.8867,0.96886 -1.57991,1.74366 -1.89963,2.12132 l -1.64951,1.65675 -0.68471,2.46703 c 0,0 -3.76876,-0.24316 -6.26732,-2.51509 -1.56161,-1.41995 -3.04762,-1.93758 -3.03548,-3.03341 z" />
    <path
       id="path525"
       style="fill:#fce6fa;stroke-width:0.0130587;stop-color:#000000"
       d="m 429.14141,27.122204 1.699,2.50911 c -1.02055,0.16575 -3.46247,1.42307 -3.43176,4.242703 l -8.30953,-0.008 c 0.0307,-2.819613 -2.44302,-4.207653 -3.63258,-4.234903 0,-5.25445 6.2533,-4.85635 8.02348,-4.63138 1.77019,0.22497 4.7676,0.81707 5.65139,2.12227 z"
       sodipodi:nodetypes="scccczs"
       inkscape:transform-center-x="0.17923791"
       inkscape:transform-center-y="12.447605" />
    <path
       id="path527"
       style="fill:#fce6fa;fill-opacity:1;stroke:none;stroke-width:0.2;stroke-linejoin:round;stroke-dasharray:none;stroke-opacity:1;stop-color:#000000"
       inkscape:transform-center-x="-13.814097"
       inkscape:transform-center-y="13.301784"
       d="m 433.11651,20.328464 c 0.6575,0.007 1.52332,0.55388 2.91662,1.94717 0.56416,1.31134 2.36809,3.37114 4.23488,5.30924 l 6.27094,6.267313 0.17931,0.008 c 0.003,0.002 0.004,0.004 0.007,0.006 h -6.45955 v 6.2761 c -6.8e-4,-7e-4 -0.001,-0.001 -0.002,-0.002 l -6.33863,-6.27507 -0.11162,-5.1e-4 c -0.96886,-0.8867 -1.74366,-1.57991 -2.12132,-1.899623 l -1.65675,-1.64951 -2.46703,-0.68471 c 0,0 0.24316,-3.76876 2.51509,-6.26732 1.41995,-1.56161 1.93758,-3.04762 3.03341,-3.03548 z" />
    <path
       id="path531"
       style="fill:#fce6fa;stroke-width:0.0130587;stop-color:#000000"
       d="m 447.01053,90.475387 -2.50911,1.699 c -0.16575,-1.02055 -1.42307,-3.46247 -4.24271,-3.43176 l 0.008,-8.30953 c 2.81962,0.0307 4.20766,-2.44302 4.23491,-3.63258 5.25445,0 4.85635,6.2533 4.63138,8.02348 -0.22497,1.77019 -0.81707,4.7676 -2.12227,5.65139 z"
       sodipodi:nodetypes="scccczs"
       inkscape:transform-center-x="12.447602"
       inkscape:transform-center-y="-0.17923891" />
    <path
       id="path533"
       style="fill:#fce6fa;fill-opacity:1;stroke:none;stroke-width:0.2;stroke-linejoin:round;stroke-dasharray:none;stroke-opacity:1;stop-color:#000000"
       inkscape:transform-center-x="13.301781"
       inkscape:transform-center-y="13.814096"
       d="m 453.80427,94.450487 c -0.007,0.6575 -0.55388,1.52332 -1.94717,2.91662 -1.31134,0.56416 -3.37114,2.36809 -5.30924,4.234873 l -6.26732,6.27094 -0.008,0.17931 c -0.002,0.003 -0.004,0.004 -0.006,0.007 v -6.45955 h -6.2761 c 7e-4,-6.8e-4 0.001,-0.001 0.002,-0.002 l 6.27507,-6.338623 5.1e-4,-0.11162 c 0.8867,-0.96886 1.57991,-1.74366 1.89963,-2.12132 l 1.64951,-1.65675 0.68471,-2.46703 c 0,0 3.76876,0.24316 6.26732,2.51509 1.56161,1.41995 3.04762,1.93758 3.03548,3.03341 z" />
    <path
       id="path1311"
       style="fill:#fce6fa;stroke-width:0.0130587;stop-color:#000000"
       d="m 6.7431439,112.72415 -2.50911,-1.699 c -0.16575,1.02055 -1.42307,3.46247 -4.24271,3.43176 l 0.008000005,8.30953 C 2.8189439,122.73574 4.2069839,125.20946 4.2342339,126.39902 c 5.25445,0 4.85635,-6.25329 4.63138,-8.02348 -0.22497,-1.77019 -0.81707,-4.7676 -2.12227,-5.65139 z"
       sodipodi:nodetypes="scccczs"
       inkscape:transform-center-x="12.448232"
       inkscape:transform-center-y="0.17925723" />
    <path
       id="path1313"
       style="fill:#fce6fa;fill-opacity:1;stroke:none;stroke-width:0.2;stroke-linejoin:round;stroke-dasharray:none;stroke-opacity:1;stop-color:#000000"
       inkscape:transform-center-x="-13.813837"
       inkscape:transform-center-y="13.30228"
       d="m 26.716294,121.92843 c 0.6575,0.007 1.52332,0.55388 2.91662,1.94717 0.56416,1.31134 2.36809,3.37114 4.234883,5.30924 l 6.27094,6.26732 0.17931,0.008 c 0.003,0.002 0.004,0.004 0.007,0.006 h -6.45983 v 6.2761 c -6.8e-4,-7e-4 -0.001,-10e-4 -0.002,-0.002 l -6.338633,-6.27507 -0.11162,-5.1e-4 c -0.96886,-0.8867 -1.74366,-1.57991 -2.12132,-1.89963 l -1.65675,-1.64951 -2.46703,-0.68471 c 0,0 0.24316,-3.76876 2.51509,-6.26732 1.41995,-1.56161 1.93758,-3.04762 3.03341,-3.03548 z" />
    <path
       id="path1315"
       style="fill:#fce6fa;stroke-width:0.0130587;stop-color:#000000"
       d="m 6.7432639,112.72434 -2.50911,-1.699 c -0.16575,1.02055 -1.42307,3.46247 -4.24271,3.43176 l 0.008000005,8.30953 C 2.8190639,122.73593 4.2071039,125.20965 4.2343539,126.39921 c 5.25445,0 4.85635,-6.2533 4.63138,-8.02348 -0.22497,-1.77019 -0.81707,-4.7676 -2.12227,-5.65139 z"
       sodipodi:nodetypes="scccczs"
       inkscape:transform-center-x="12.448112"
       inkscape:transform-center-y="0.17944723" />
    <path
       id="path1325"
       style="fill:#fce6fa;stroke-width:0.0130587;stop-color:#000000"
       d="m 293.67465,108.3434 1.699,-2.50911 c -1.02055,-0.16575 -3.46247,-1.42307 -3.43176,-4.24271 l -8.30953,0.008 c 0.0307,2.81962 -2.44302,4.20766 -3.63258,4.23491 0,5.25445 6.25329,4.85635 8.02348,4.63138 1.77019,-0.22497 4.7676,-0.81707 5.65139,-2.12227 z"
       sodipodi:nodetypes="scccczs"
       inkscape:transform-center-x="0.17969149"
       inkscape:transform-center-y="-12.447748" />
    <path
       id="path1327"
       style="fill:#fce6fa;fill-opacity:1;stroke:none;stroke-width:0.2;stroke-linejoin:round;stroke-dasharray:none;stroke-opacity:1;stop-color:#000000"
       inkscape:transform-center-x="13.302714"
       inkscape:transform-center-y="13.814321"
       d="m 284.47037,128.31655 c -0.007,0.6575 -0.55388,1.52332 -1.94717,2.91662 -1.31134,0.56416 -3.37114,2.36809 -5.30924,4.23488 l -6.26732,6.27094 -0.008,0.17931 c -0.002,0.003 -0.004,0.004 -0.006,0.007 v -6.45983 h -6.2761 c 7e-4,-6.8e-4 10e-4,-0.001 0.002,-0.002 l 6.27507,-6.33863 5.1e-4,-0.11162 c 0.8867,-0.96886 1.57991,-1.74366 1.89963,-2.12132 l 1.64951,-1.65675 0.68471,-2.46703 c 0,0 3.76876,0.24316 6.26732,2.51509 1.56161,1.41995 3.04762,1.93758 3.03548,3.03341 z" />
    <path
       id="path1329"
       style="fill:#fce6fa;stroke-width:0.0130587;stop-color:#000000"
       d="m 293.67446,108.34352 1.699,-2.50911 c -1.02055,-0.16575 -3.46247,-1.42307 -3.43176,-4.24271 l -8.30953,0.008 c 0.0307,2.81962 -2.44302,4.20766 -3.63258,4.23491 0,5.25445 6.2533,4.85635 8.02348,4.63138 1.77019,-0.22497 4.7676,-0.81707 5.65139,-2.12227 z"
       sodipodi:nodetypes="scccczs"
       inkscape:transform-center-x="0.17988149"
       inkscape:transform-center-y="-12.447628" />
    <path
       id="path1333"
       style="fill:#fce6fa;stroke-width:0.0130587;stop-color:#000000"
       d="m 399.65544,90.473733 2.50911,1.699 c 0.16575,-1.02055 1.42307,-3.46247 4.24271,-3.43176 l -0.008,-8.30953 c -2.81962,0.0307 -4.20766,-2.44302 -4.23491,-3.63258 -5.25445,0 -4.85635,6.25329 -4.63138,8.02348 0.22497,1.77019 0.81707,4.7676 2.12227,5.65139 z"
       sodipodi:nodetypes="scccczs"
       inkscape:transform-center-x="-12.4489"
       inkscape:transform-center-y="-0.17979311" />
    <path
       id="path1335"
       style="fill:#fce6fa;fill-opacity:1;stroke:none;stroke-width:0.2;stroke-linejoin:round;stroke-dasharray:none;stroke-opacity:1;stop-color:#000000"
       inkscape:transform-center-x="13.813168"
       inkscape:transform-center-y="-13.302816"
       d="m 379.68229,81.269453 c -0.6575,-0.007 -1.52332,-0.55388 -2.91662,-1.94717 -0.56416,-1.31134 -2.36809,-3.37114 -4.23488,-5.30924 l -6.27094,-6.26732 -0.17931,-0.008 c -0.003,-0.002 -0.004,-0.004 -0.007,-0.006 h 6.45983 v -6.276097 c 6.8e-4,7e-4 0.001,10e-4 0.002,0.002 l 6.33863,6.275067 0.11162,5.1e-4 c 0.96886,0.8867 1.74366,1.57991 2.12132,1.89963 l 1.65675,1.64951 2.46703,0.68471 c 0,0 -0.24316,3.76876 -2.51509,6.26732 -1.41995,1.56161 -1.93758,3.04762 -3.03341,3.03548 z" />
    <path
       id="path1337"
       style="fill:#fce6fa;stroke-width:0.0130587;stop-color:#000000"
       d="m 399.65532,90.473543 2.50911,1.699 c 0.16575,-1.02055 1.42307,-3.46247 4.24271,-3.43176 l -0.008,-8.30953 c -2.81962,0.0307 -4.20766,-2.44302 -4.23491,-3.63258 -5.25445,0 -4.85635,6.2533 -4.63138,8.02348 0.22497,1.77019 0.81707,4.7676 2.12227,5.65139 z"
       sodipodi:nodetypes="scccczs"
       inkscape:transform-center-x="-12.44878"
       inkscape:transform-center-y="-0.17998311" />
    <path
       id="path1341"
       style="fill:#fce6fa;stroke-width:0.0130587;stop-color:#000000"
       d="m 463.00812,60.988867 1.699,2.50911 c -1.02055,0.16575 -3.46247,1.42307 -3.43176,4.24271 l -8.30953,-0.008 c 0.0307,-2.81962 -2.44302,-4.20766 -3.63258,-4.23491 0,-5.25445 6.25329,-4.85635 8.02348,-4.63138 1.77019,0.22497 4.7676,0.81707 5.65139,2.12227 z"
       sodipodi:nodetypes="scccczs"
       inkscape:transform-center-x="0.17924291"
       inkscape:transform-center-y="12.448121" />
    <path
       id="path1343"
       style="fill:#fce6fa;fill-opacity:1;stroke:none;stroke-width:0.2;stroke-linejoin:round;stroke-dasharray:none;stroke-opacity:1;stop-color:#000000"
       inkscape:transform-center-x="-0.0019467359"
       inkscape:transform-center-y="0.00023687962"
       d="m 453.80384,41.015717 c -0.007,-0.6575 -0.55388,-1.52332 -1.94717,-2.91662 -1.31134,-0.56416 -3.37114,-2.36809 -5.30924,-4.23488 l -6.26732,-6.270933 -0.008,-0.17931 c -0.002,-0.003 -0.004,-0.004 -0.006,-0.007 v 6.459823 H 433.99 c 7e-4,6.8e-4 10e-4,0.001 0.002,0.002 l 6.27508,6.33863 5.1e-4,0.11162 c 0.8867,0.96886 1.57991,1.74366 1.89963,2.12132 l 1.64951,1.65675 0.68471,2.46703 c 0,0 3.76876,-0.24316 6.26732,-2.51509 1.56161,-1.41995 3.04762,-1.93758 3.03548,-3.03341 z" />
    <path
       id="path1345"
       style="fill:#fce6fa;stroke-width:0.0130587;stop-color:#000000"
       d="m 463.00793,60.988747 1.699,2.50911 c -1.02055,0.16575 -3.46247,1.42307 -3.43176,4.24271 l -8.30953,-0.008 c 0.0307,-2.81962 -2.44302,-4.20766 -3.63258,-4.23491 0,-5.25445 6.2533,-4.85635 8.02348,-4.63138 1.77019,0.22497 4.7676,0.81707 5.65139,2.12227 z"
       sodipodi:nodetypes="scccczs"
       inkscape:transform-center-x="0.17928679"
       inkscape:transform-center-y="12.447942" />
    <use
       x="0"
       y="0"
       xlink:href="#g1074"
       id="use1333"
       transform="translate(67.733333,-135.46667)" />
    <use
       x="0"
       y="0"
       xlink:href="#g1074"
       id="use1335"
       transform="translate(169.33334,-135.46667)" />
    <use
       x="0"
       y="0"
       xlink:href="#use1335"
       id="use1337"
       transform="translate(-33.866667)" />
    <use
       x="0"
       y="0"
       xlink:href="#g1074"
       id="use1341"
       transform="translate(203.20001,-101.6)" />
    <use
       x="0"
       y="0"
       xlink:href="#use1341"
       id="use1343"
       transform="translate(-101.6)" />
    <use
       x="0"
       y="0"
       xlink:href="#use1343"
       id="use1345"
       transform="translate(-33.866667)" />
    <use
       x="0"
       y="0"
       xlink:href="#use1345"
       id="use1347"
       transform="translate(-101.6)" />
    <use
       x="0"
       y="0"
       xlink:href="#use1347"
       id="use1349"
       transform="translate(-33.866667)" />
    <use
       x="0"
       y="0"
       xlink:href="#use1349"
       id="use1351"
       transform="translate(-67.733334)" />
    <use
       x="0"
       y="0"
       xlink:href="#use1351"
       id="use1353"
       transform="translate(-101.6)" />
    <use
       x="0"
       y="0"
       xlink:href="#g1074"
       id="use1355"
       transform="translate(203.20001,-67.733334)" />
    <use
       x="0"
       y="0"
       xlink:href="#use1355"
       id="use1357"
       transform="translate(-67.733334)" />
    <use
       x="0"
       y="0"
       xlink:href="#use1357"
       id="use1359"
       transform="translate(-101.6)" />
    <use
       x="0"
       y="0"
       xlink:href="#use1361"
       id="use1363"
       transform="translate(-169.33334)" />
    <use
       x="0"
       y="0"
       xlink:href="#use1363"
       id="use1365"
       transform="translate(67.733333)" />
    <use
       x="0"
       y="0"
       xlink:href="#use1365"
       id="use1367"
       transform="translate(-101.6)" />
    <use
       x="0"
       y="0"
       xlink:href="#g1074"
       id="use1369"
       transform="translate(169.33334,-33.866667)" />
    <use
       x="0"
       y="0"
       xlink:href="#use1369"
       id="use1371"
       transform="translate(-135.46667)" />
    <use
       x="0"
       y="0"
       xlink:href="#use1371"
       id="use1373"
       transform="translate(-135.46667)" />
    <use
       x="0"
       y="0"
       xlink:href="#use1373"
       id="use1375"
       transform="translate(-135.46667)" />
    <use
       x="0"
       y="0"
       xlink:href="#g1074"
       id="use1377"
       transform="translate(-67.733334)" />
    <use
       x="0"
       y="0"
       xlink:href="#use1377"
       id="use1379"
       transform="translate(-67.733334)" />
    <use
       x="0"
       y="0"
       xlink:href="#use1379"
       id="use1381"
       transform="translate(-67.733334)" />
    <use
       x="0"
       y="0"
       xlink:href="#use1381"
       id="use1383"
       transform="translate(-33.866667,33.866667)" />
    <use
       x="0"
       y="0"
       xlink:href="#use1383"
       id="use1385"
       transform="translate(203.20001)" />
    <use
       x="0"
       y="0"
       xlink:href="#use1385"
       id="use1387"
       transform="translate(-67.733334)" />
    <use
       x="0"
       y="0"
       xlink:href="#use1387"
       id="use1389"
       transform="translate(-67.733334)" />
    <path
       id="path473"
       style="fill:none;stroke:#de58c9;stroke-width:1.32291666;stroke-linejoin:round;stop-color:#000000;stroke-dasharray:none"
       d="m 317.51979,-0.0042161 c -10e-4,1.99738 -2.16786,4.22356 -4.86178,4.23966 -2.69393,0.0161 -3.59857,1.60497 -3.59857,3.59857 m 0,18.1997201 c 0,1.99361 1.60496,3.59857 3.59857,3.59857 l 9.08484,0.002 9.08485,0.002 c 1.99361,0 3.59857,-1.60496 3.59857,-3.59857 V 7.8380139 c 0,-1.9936 -0.90465,-3.58246 -3.59857,-3.59857 -2.69392,-0.0161 -4.86038,-2.24228 -4.86178,-4.23964999524 M 304.79557,21.145464 c 1.99738,0.001 4.22356,2.16786 4.23966,4.86179 0.0161,2.69392 1.60497,3.59856 3.59857,3.59856 h 18.19972 c 1.99361,0 3.59857,-1.60496 3.59857,-3.59857 l 0.002,-9.08484 0.002,-9.0848501 c 0,-1.99361 -1.60496,-3.59857 -3.59857,-3.59857 m -18.19972,0 c -1.9936,0 -3.58246,0.90465 -3.59857,3.59857 -0.0161,2.6939201 -2.24228,4.8603801 -4.23965,4.8617801"
       sodipodi:nodetypes="cscccccssscccssccccccc"
       inkscape:transform-center-x="2.1166246"
       inkscape:transform-center-y="-2.1171556" />
    <use
       x="0"
       y="0"
       xlink:href="#use1337"
       id="use1339"
       transform="translate(-33.866667)" />
    <path
       id="path505"
       style="fill:none;stroke:#de58c9;stroke-width:1.32291666;stroke-linejoin:round;stop-color:#000000;stroke-dasharray:none"
       inkscape:transform-center-x="2.1212367"
       inkscape:transform-center-y="-0.0090416565"
       d="m 338.65355,21.148584 c 1.99738,0.001 4.22356,2.16786 4.23966,4.86179 0.0161,2.69392 1.60497,3.59856 3.59857,3.59856 h 18.19972 c 1.99361,0 3.59857,-1.60496 3.59857,-3.59856 m 0.004,-18.1697001 c 0,-1.9936 -1.60496,-3.59857 -3.59857,-3.59857 h -18.19972 c -1.9936,0 -3.58246,0.90465 -3.59857,3.59857 -0.0161,2.6939301 -2.24228,4.8603901 -4.23965,4.8617901 m 33.87898,0.0181 c -1.99738,-10e-4 -4.22356,-2.16785 -4.23966,-4.8617801 -0.0161,-2.69392 -1.60497,-3.59857 -3.59857,-3.59857 h -18.19972 c -1.99361,0 -3.59857,1.60497 -3.59857,3.59857 m -0.004,18.1696901 c 0,1.99361 1.60496,3.59857 3.59857,3.59857 h 18.19972 c 1.9936,0 3.58246,-0.90464 3.59857,-3.59857 0.0161,-2.69392 2.24228,-4.86038 4.23965,-4.86178"
       sodipodi:nodetypes="csssccsssccsssccsssc" />
    <path
       id="path536"
       style="fill:none;stroke:#de58c9;stroke-width:1.32291666;stroke-linejoin:round;stop-color:#000000;stroke-dasharray:none"
       inkscape:transform-center-x="-0.009023153"
       inkscape:transform-center-y="-2.121237"
       d="m 385.24769,-0.0069361 c -10e-4,1.99738 -2.16786,4.22356 -4.86179,4.23966 -2.69392,0.0161 -3.59856,1.60497 -3.59856,3.59857 V 26.031014 c 0,1.99361 1.60496,3.59857 3.59856,3.59857 m 18.1697,0.004 c 1.9936,0 3.59857,-1.60496 3.59857,-3.59857 V 7.8352939 c 0,-1.9936 -0.90465,-3.58246 -3.59857,-3.59857 -2.69393,-0.0161 -4.86039,-2.24228 -4.86179,-4.23965 m -0.0181,33.8789831 c 0.001,-1.997383 2.16786,-4.223563 4.86179,-4.239663 2.69392,-0.0161 3.59856,-1.60497 3.59856,-3.59857 V 7.8381039 c 0,-1.99361 -1.60496,-3.59857 -3.59856,-3.59857 m -18.1697,-0.004 c -1.9936,0 -3.59857,1.60496 -3.59857,3.59857 V 26.033824 c 0,1.9936 0.90465,3.58246 3.59857,3.59857 2.69393,0.0161 4.86039,2.24228 4.86179,4.239653"
       sodipodi:nodetypes="csssccsssccsssccsssc" />
    <path
       id="path1347"
       style="fill:none;stroke:#de58c9;stroke-width:1.32291666;stroke-linejoin:round;stop-color:#000000;stroke-dasharray:none"
       d="m 461.41177,67.736657 c 0.001,-1.99738 2.16786,-4.22356 4.86178,-4.23966 2.69393,-0.0161 3.59857,-1.60497 3.59857,-3.59857 v -18.19972 c 0,-1.99361 -1.60496,-3.59857 -3.59857,-3.59857 l -9.08484,-0.002 -4.22306,0.002 m -8.46667,8.46667 0.006,13.32764 c 9.4e-4,1.9936 0.90465,3.58246 3.59857,3.59857 2.69392,0.0161 4.86038,2.24228 4.86178,4.23965 m -19.11615,-33.86585 c 7e-4,6.6e-4 0.001,0.001 0.002,0.002 l 6.41564,6.41563 c 2.02306,2.17284 4.22951,4.8452 4.23385,6.27972 l 0.006,13.33459 c 6.2e-4,1.9936 1.60464,3.59874 3.59823,3.59874 m 18.19941,0 c 1.0105,0 1.92157,-0.41253 2.54558,-1.05058 0.63789,-0.62418 1.05007,-1.53456 1.05007,-2.54506 v -18.19993 c 0,-1.99359 -1.60514,-3.59729 -3.59875,-3.59823 l -13.33459,-0.006 c -1.43451,-0.004 -4.10688,-2.21037 -6.27972,-4.23333 l -6.41563,-6.415623 c -0.002,-0.002 -0.004,-0.005 -0.006,-0.007"
       sodipodi:nodetypes="csssccccssccsccccccsscccsc" />
    <path
       id="path529"
       style="fill:none;stroke:#de58c9;stroke-width:1.32291666;stroke-linejoin:round;stop-color:#000000;stroke-dasharray:none"
       inkscape:transform-center-x="-5.3294772"
       inkscape:transform-center-y="5.3224862"
       d="m 419.12018,33.869397 c -0.001,-1.997373 -2.16786,-4.223553 -4.86178,-4.239653 -2.69393,-0.0161 -3.59857,-1.60497 -3.59857,-3.59857 V 7.8314539 c 0,-1.99361 1.60496,-3.59857 3.59857,-3.59857 l 9.08484,-0.002 9.08485,-0.002 c 1.9936,0 3.59776,1.60496 3.59857,3.59857 l 0.005,13.3392001 m 4.23333,19.116143 c -6.6e-4,-7e-4 -0.001,-0.001 -0.002,-0.002 l -6.41563,-6.41563 c -2.17284,-2.023053 -3.16361,-2.777563 -4.53111,-3.481773 -1.06147,0.96294 -1.74959,2.357993 -1.75038,3.481993 m -13.33282,-4.240063 c -1.9936,-6.2e-4 -3.59874,-1.60464 -3.59874,-3.59823 V 7.8276839 c 0,-1.0105 0.41253,-1.92157 1.05058,-2.54558 0.62418,-0.63789 1.53456,-1.05007 2.54506,-1.05007 h 18.19993 c 1.99359,0 3.59729,1.60514 3.59823,3.59875 l 0.006,13.3345901 c 0.004,1.43451 2.21037,4.10688 4.23333,6.27972 l 6.41563,6.415623 c 0.002,0.002 0.005,0.004 0.007,0.006"
       sodipodi:nodetypes="cssscccsccsccccsscsscccsc" />
    <path
       id="path535"
       style="fill:none;stroke:#de58c9;stroke-width:1.32291666;stroke-linejoin:round;stop-color:#000000;stroke-dasharray:none"
       inkscape:transform-center-x="5.3224828"
       inkscape:transform-center-y="5.3294762"
       d="m 440.26333,80.454157 c 1.99738,-10e-4 4.22356,-2.16786 4.23966,-4.86178 0.0161,-2.69393 1.60497,-3.59857 3.59857,-3.59857 h 18.19972 c 1.99361,0 3.59857,1.60496 3.59857,3.59857 l 0.002,9.08484 0.002,9.08485 c 0,1.9936 -1.60496,3.59776 -3.59857,3.59857 l -13.3392,0.005 m -19.11615,4.233323 c 7e-4,-6.6e-4 0.001,-0.001 0.002,-0.002 l 6.41563,-6.415623 c 2.02306,-2.17284 2.77757,-3.16361 3.48178,-4.53111 -0.96294,-1.06147 -2.358,-1.74959 -3.482,-1.75038 m 4.24007,-13.33282 c 6.2e-4,-1.9936 1.60464,-3.59874 3.59823,-3.59874 h 18.19941 c 1.0105,0 1.92157,0.41253 2.54558,1.05058 0.63789,0.62418 1.05007,1.53456 1.05007,2.54506 v 18.19993 c 0,1.99359 -1.60514,3.59729 -3.59875,3.59823 l -13.33459,0.006 c -1.43451,0.004 -4.10688,2.21037 -6.27972,4.233323 l -6.41563,6.41563 c -0.002,0.002 -0.004,0.005 -0.006,0.007"
       sodipodi:nodetypes="cssscccsccsccccsscsscccsc" />
    <path
       id="path523"
       style="fill:none;stroke:#de58c9;stroke-width:1.32291666;stroke-linejoin:round;stop-color:#000000;stroke-dasharray:none"
       inkscape:transform-center-x="-5.3224872"
       inkscape:transform-center-y="-5.3294738"
       d="m 440.26877,122.74589 c -1.99738,10e-4 -4.22356,2.16786 -4.23966,4.86178 -0.0161,2.69393 -1.60497,3.59857 -3.59857,3.59857 h -18.19972 c -1.99361,0 -3.59857,-1.60496 -3.59857,-3.59857 l -0.002,-9.08484 -0.002,-9.08485 c 0,-1.9936 1.60496,-3.59776 3.59857,-3.59857 l 13.3392,-0.005 m 19.11615,-4.23333 c -7e-4,6.6e-4 -10e-4,0.001 -0.002,0.002 l -6.41563,6.41563 c -2.02306,2.17284 -2.77757,3.16361 -3.48178,4.53111 0.96294,1.06147 2.358,1.74959 3.482,1.75038 m -4.24007,13.33282 c -6.2e-4,1.9936 -1.60464,3.59874 -3.59823,3.59874 h -18.19941 c -1.0105,0 -1.92157,-0.41253 -2.54558,-1.05058 -0.63789,-0.62418 -1.05007,-1.53456 -1.05007,-2.54506 v -18.19993 c 0,-1.99359 1.60514,-3.59729 3.59875,-3.59823 l 13.33459,-0.006 c 1.43451,-0.004 4.10688,-2.21037 6.27972,-4.23333 l 6.41563,-6.415623 c 0.002,-0.002 0.004,-0.005 0.006,-0.007"
       sodipodi:nodetypes="cssscccsccsccccsscsscccsc" />
    <path
       id="path1339"
       style="fill:none;stroke:#de58c9;stroke-width:1.32291666;stroke-linejoin:round;stop-color:#000000;stroke-dasharray:none"
       d="m 406.40323,88.877383 c -1.99738,0.001 -4.22356,2.16786 -4.23966,4.86178 -0.0161,2.69393 -1.60497,3.59857 -3.59857,3.59857 h -18.19972 c -1.99361,0 -3.59857,-1.60496 -3.59857,-3.59857 l -0.002,-9.08484 0.002,-4.22306 m 8.46667,-8.46667 13.32764,0.006 c 1.9936,9.4e-4 3.58246,0.90465 3.59857,3.59857 0.0161,2.69392 2.24228,4.86038 4.23965,4.86178 M 372.53339,61.314806 c 6.6e-4,7e-4 10e-4,0.001 0.002,0.002 l 6.41563,6.415627 c 2.17284,2.02306 4.8452,4.22951 6.27972,4.23385 l 13.33459,0.006 c 1.9936,6.2e-4 3.59874,1.60464 3.59874,3.59823 m 0,18.19941 c 0,1.0105 -0.41253,1.92157 -1.05058,2.54558 -0.62418,0.63789 -1.53456,1.05007 -2.54506,1.05007 H 380.3685 c -1.99359,0 -3.59729,-1.60514 -3.59823,-3.59875 l -0.006,-13.33459 c -0.004,-1.43451 -2.21037,-4.10688 -4.23333,-6.27972 l -6.41563,-6.41563 c -0.002,-0.002 -0.005,-0.004 -0.007,-0.006"
       sodipodi:nodetypes="csssccccssccsccccccsscccsc"
       inkscape:transform-center-x="3.2095285"
       inkscape:transform-center-y="-5.3254031" />
    <path
       id="path1424"
       style="fill:none;stroke:#de58c9;stroke-width:1.32291666;stroke-linejoin:round;stop-color:#000000;stroke-dasharray:none"
       d="m 351.38696,33.862267 c -10e-4,1.99738 -2.16786,4.22356 -4.86178,4.23966 -2.69393,0.0161 -3.59857,1.60497 -3.59857,3.59857 v 18.19972 c 0,1.99361 1.60496,3.59857 3.59857,3.59857 l 9.08484,0.002 4.22306,-0.002 m 8.46667,-8.46667 -0.006,-13.32764 c -9.4e-4,-1.9936 -0.90465,-3.58246 -3.59857,-3.59857 -2.69392,-0.0161 -4.86038,-2.24228 -4.86178,-4.23965 m 19.11614,33.86585 c -7e-4,-6.6e-4 -0.001,-0.001 -0.002,-0.002 l -6.41563,-6.41563 c -2.02306,-2.17284 -4.22951,-4.8452 -4.23385,-6.27972 l -0.006,-13.33459 c -6.2e-4,-1.9936 -1.60464,-3.59874 -3.59823,-3.59874 m -18.19941,0 c -1.0105,0 -1.92157,0.41253 -2.54558,1.05058 -0.63789,0.62418 -1.05007,1.53456 -1.05007,2.54506 v 18.19993 c 0,1.99359 1.60514,3.59729 3.59875,3.59823 l 13.33459,0.006 c 1.43451,0.004 4.10688,2.21037 6.27972,4.23333 l 6.41563,6.41563 c 0.002,0.002 0.004,0.005 0.006,0.007"
       sodipodi:nodetypes="csssccccssccsccccccsscccsc"
       inkscape:transform-center-x="-5.3248627"
       inkscape:transform-center-y="3.2102022" />
    <path
       id="path786"
       style="fill:none;stroke:#de58c9;stroke-width:1.32291666;stroke-linejoin:round;stop-color:#000000;stroke-dasharray:none"
       d="m 338.66987,46.587197 c -1.99738,-0.001 -4.22356,-2.16786 -4.23966,-4.86178 -0.0161,-2.69393 -1.60497,-3.59857 -3.59857,-3.59857 h -18.19972 c -1.99361,0 -3.59857,1.60496 -3.59857,3.59857 l -0.002,9.08484 0.002,4.22306 m 8.46667,8.46667 13.32764,-0.006 c 1.9936,-9.4e-4 3.58246,-0.90465 3.59857,-3.59857 0.0161,-2.69392 2.24228,-4.86038 4.23965,-4.86178 m -33.86585,19.11614 c 6.6e-4,-7e-4 0.001,-0.001 0.002,-0.002 l 6.41563,-6.41563 c 2.17284,-2.02306 4.8452,-4.22951 6.27972,-4.23385 l 13.33459,-0.006 c 1.9936,-6.2e-4 3.59874,-1.60464 3.59874,-3.59823 m 0,-18.19941 c 0,-1.0105 -0.41253,-1.92157 -1.05058,-2.54558 -0.62418,-0.63789 -1.53456,-1.05007 -2.54506,-1.05007 h -18.19993 c -1.99359,0 -3.59729,1.60514 -3.59823,3.59875 l -0.006,13.33459 c -0.004,1.43451 -2.21037,4.10688 -4.23333,6.27972 l -6.41563,6.41563 c -0.002,0.002 -0.005,0.004 -0.007,0.006"
       sodipodi:nodetypes="csssccccssccsccccccsscccsc" />
    <path
       id="path1430"
       style="fill:none;stroke:#de58c9;stroke-width:1.32291666;stroke-linejoin:round;stop-color:#000000;stroke-dasharray:none"
       d="m 270.92841,88.877407 c 1.99738,10e-4 4.22356,2.16786 4.23966,4.86178 0.0161,2.69393 1.60497,3.59857 3.59857,3.59857 h 18.19972 c 1.99361,0 3.59857,-1.60496 3.59857,-3.59857 l 0.002,-9.08484 -0.002,-4.22306 m -8.46667,-8.46667 -13.32764,0.006 c -1.9936,9.4e-4 -3.58246,0.90465 -3.59857,3.59857 -0.0161,2.69392 -2.24228,4.86038 -4.23965,4.86178 m 33.86585,-19.11614 c -6.6e-4,7e-4 -10e-4,10e-4 -0.002,0.002 l -6.41563,6.41563 c -2.17284,2.02306 -4.8452,4.22951 -6.27972,4.23385 l -13.33459,0.006 c -1.9936,6.2e-4 -3.59874,1.60464 -3.59874,3.59823 m 0,18.19941 c 0,1.0105 0.41253,1.92157 1.05058,2.54558 0.62418,0.63789 1.53456,1.05007 2.54506,1.05007 h 18.19993 c 1.99359,0 3.59729,-1.60514 3.59823,-3.59875 l 0.006,-13.33459 c 0.004,-1.43451 2.21037,-4.10688 4.23333,-6.27972 l 6.41563,-6.41563 c 0.002,-0.002 0.005,-0.004 0.007,-0.006"
       sodipodi:nodetypes="csssccccssccsccccccsscccsc"
       inkscape:transform-center-x="-3.2100564"
       inkscape:transform-center-y="-5.3254231" />
    <use
       x="0"
       y="0"
       xlink:href="#use1359"
       id="use1361"
       transform="translate(-33.866667)" />
    <path
       id="path1382"
       style="fill:none;stroke:#de58c9;stroke-width:1.32291666;stroke-linejoin:round;stop-color:#000000;stroke-dasharray:none"
       inkscape:transform-center-x="5.3230908"
       inkscape:transform-center-y="-5.3299108"
       d="m 237.06317,88.878197 c 1.99738,0.001 4.22356,2.16786 4.23966,4.86178 0.0161,2.69393 1.60497,3.59857 3.59857,3.59857 h 18.19972 c 1.99361,0 3.59857,-1.60496 3.59857,-3.59857 l 0.002,-9.08484 0.002,-9.08485 c 0,-1.9936 -1.60496,-3.59776 -3.59857,-3.59857 l -13.3392,-0.005 m -19.11615,-4.23333 c 7e-4,6.6e-4 0.001,0.001 0.002,0.002 l 6.41563,6.41563 c 2.02306,2.17284 2.77757,3.16361 3.48178,4.53111 -0.96294,1.06147 -2.358,1.74959 -3.482,1.75038 m 4.24007,13.33282 c 6.2e-4,1.9936 1.60464,3.59874 3.59823,3.59874 h 18.19941 c 1.0105,0 1.92157,-0.41253 2.54558,-1.05058 0.63789,-0.62418 1.05007,-1.53456 1.05007,-2.54506 v -18.19993 c 0,-1.99359 -1.60514,-3.59729 -3.59875,-3.59823 l -13.33459,-0.006 c -1.43451,-0.004 -4.10688,-2.21037 -6.27972,-4.23333 l -6.41563,-6.41563 c -0.002,-0.002 -0.004,-0.005 -0.006,-0.007"
       sodipodi:nodetypes="cssscccsccsccccsscsscccsc" />
    <path
       id="path1394"
       style="fill:none;stroke:#de58c9;stroke-width:1.32291666;stroke-linejoin:round;stop-color:#000000;stroke-dasharray:none"
       inkscape:transform-center-x="-5.3228241"
       inkscape:transform-center-y="5.3295257"
       d="m 237.06915,46.587207 c -1.99738,-10e-4 -4.22356,-2.16786 -4.23966,-4.86178 -0.0161,-2.69393 -1.60497,-3.59857 -3.59857,-3.59857 H 211.0312 c -1.99361,0 -3.59857,1.60496 -3.59857,3.59857 l -0.002,9.08484 -0.002,9.08485 c 0,1.9936 1.60496,3.59776 3.59857,3.59857 l 13.3392,0.005 m 19.11615,4.23333 c -7e-4,-6.6e-4 -0.001,-0.001 -0.002,-0.002 l -6.41563,-6.41563 c -2.02306,-2.17284 -2.77757,-3.16361 -3.48178,-4.53111 0.96294,-1.06147 2.358,-1.74959 3.482,-1.75038 m -4.24007,-13.33282 c -6.2e-4,-1.9936 -1.60464,-3.59874 -3.59823,-3.59874 h -18.19941 c -1.0105,0 -1.92157,0.41253 -2.54558,1.05058 -0.63789,0.62418 -1.05007,1.53456 -1.05007,2.54506 v 18.19993 c 0,1.99359 1.60514,3.59729 3.59875,3.59823 l 13.33459,0.006 c 1.43451,0.004 4.10688,2.21037 6.27972,4.23333 l 6.41563,6.41563 c 0.002,0.002 0.004,0.005 0.006,0.007"
       sodipodi:nodetypes="cssscccsccsccccsscsscccsc" />
    <path
       id="path1376"
       style="fill:none;stroke:#de58c9;stroke-width:1.32291666;stroke-linejoin:round;stop-color:#000000;stroke-dasharray:none"
       inkscape:transform-center-x="0.010934665"
       inkscape:transform-center-y="2.1164802"
       d="m 190.47858,67.736077 c 0.001,-1.99738 2.16786,-4.22356 4.86178,-4.23966 2.69393,-0.0161 3.59857,-1.60497 3.59857,-3.59857 v -18.19972 c 0,-1.99361 -1.60496,-3.59857 -3.59857,-3.59857 l -9.08484,-0.002 -9.08485,-0.002 c -1.9936,0 -3.59776,1.60496 -3.59857,3.59857 l -0.005,13.3392 m -4.23333,19.11615 c 6.6e-4,-7e-4 0.001,-0.001 0.002,-0.002 l 6.41563,-6.41563 c 2.17284,-2.02306 3.16361,-2.77757 4.53111,-3.48178 1.06147,0.96294 1.74959,2.358 1.75038,3.482 m 13.33282,-4.24007 c 1.9936,-6.2e-4 3.59874,-1.60464 3.59874,-3.59823 v -18.19941 c 0,-1.0105 -0.41253,-1.92157 -1.05058,-2.54558 -0.62418,-0.63789 -1.53456,-1.05007 -2.54506,-1.05007 h -18.19993 c -1.99359,0 -3.59729,1.60514 -3.59823,3.59875 l -0.006,13.33459 c -0.004,1.43451 -2.21037,4.10688 -4.23333,6.27972 l -6.41563,6.41563 c -0.002,0.002 -0.005,0.004 -0.007,0.006"
       sodipodi:nodetypes="cssscccsccsccccsscsscccsc" />
    <path
       id="path1388"
       style="fill:none;stroke:#de58c9;stroke-width:1.32291666;stroke-linejoin:round;stop-color:#000000;stroke-dasharray:none"
       inkscape:transform-center-x="-5.3294768"
       inkscape:transform-center-y="-5.3224838"
       d="m 148.18684,67.730657 c -10e-4,1.99738 -2.16786,4.22356 -4.86178,4.23966 -2.69393,0.0161 -3.59857,1.60497 -3.59857,3.59857 v 18.19972 c 0,1.99361 1.60496,3.59857 3.59857,3.59857 l 9.08484,0.002 9.08485,0.002 c 1.9936,0 3.59776,-1.60496 3.59857,-3.59857 l 0.005,-13.3392 m 4.23333,-19.11615 c -6.6e-4,7e-4 -0.001,0.001 -0.002,0.002 l -6.41563,6.41563 c -2.17284,2.02306 -3.16361,2.77757 -4.53111,3.48178 -1.06147,-0.96294 -1.74959,-2.358 -1.75038,-3.482 m -13.33282,4.24007 c -1.9936,6.2e-4 -3.59874,1.60464 -3.59874,3.59823 v 18.19941 c 0,1.0105 0.41253,1.92157 1.05058,2.54558 0.62418,0.63789 1.53456,1.05007 2.54506,1.05007 h 18.19993 c 1.99359,0 3.59729,-1.60514 3.59823,-3.59875 l 0.006,-13.33459 c 0.004,-1.43451 2.21037,-4.10688 4.23333,-6.27972 l 6.41563,-6.41563 c 0.002,-0.002 0.005,-0.004 0.007,-0.006"
       sodipodi:nodetypes="cssscccsccsccccsscsscccsc" />
    <path
       id="path5609"
       style="fill:none;stroke:#de58c9;stroke-width:1.32291666;stroke-linejoin:round;stop-color:#000000;stroke-dasharray:none"
       inkscape:transform-center-x="-0.00013552446"
       inkscape:transform-center-y="-0.0017946911"
       d="m 95.181743,67.726907 c -2.17284,2.02306 -4.8452,4.22952 -6.27972,4.23385 l -13.33458,0.006 c -1.99361,9.3e-4 -3.59875,1.60514 -3.59875,3.59873 v 18.19941 c 0,1.0105 0.41253,1.92156 1.05058,2.54558 0.62418,0.63789 1.53457,1.05007 2.54507,1.05007 h 18.19992 c 1.9936,0 3.59729,-1.60514 3.59823,-3.59875 l 0.006,-13.33459 c 0.004,-1.43451 2.21037,-4.10687 4.233327,-6.27972 l 6.41573,-6.41572 c 2.17284,-2.02305 4.8452,-4.22951 6.27972,-4.23385 l 13.33458,-0.006 c 1.99361,-6.2e-4 3.59875,-1.60483 3.59875,-3.59843 v -18.1994 c 0,-1.0105 -0.41253,-1.92157 -1.05058,-2.54558 -0.62418,-0.63789 -1.53457,-1.05007 -2.54507,-1.05007 h -18.19992 c -1.9936,0 -3.59729,1.60514 -3.59823,3.59875 l -0.006,13.33458 c -0.004,1.43452 -2.21037,4.10688 -4.23333,6.27972 z"
       sodipodi:nodetypes="cccsscssccccccsscsscccc" />
    <path
       id="path5477"
       style="fill:none;stroke:#de58c9;stroke-width:1.32291666;stroke-linejoin:round;stop-color:#000000;stroke-dasharray:none"
       inkscape:transform-center-x="2.1189443"
       inkscape:transform-center-y="-2.1189453"
       d="m 33.861806,74.149057 c 2.02306,2.17284 4.22952,4.8452 4.23385,6.27972 l 0.006,13.33459 c 9.3e-4,1.9936 1.60514,3.59874 3.59873,3.59874 h 18.19941 c 1.0105,0 1.92156,-0.41253 2.54558,-1.05058 0.63789,-0.62417 1.05007,-1.53456 1.05007,-2.54506 v -18.19993 c 0,-1.99359 -1.60514,-3.59729 -3.59875,-3.59823 l -13.33459,-0.006 c -1.43451,-0.004 -4.10687,-2.21037 -6.27972,-4.23333 l -6.41572,-6.41572 c -2.023057,-2.17285 -4.229516,-4.84521 -4.23385,-6.27972 l -0.0057,-13.33459 c -9.25e-4,-1.99361 -1.605133,-3.59875 -3.598731,-3.59875 H 7.8289793 c -1.010499,0 -1.921562,0.41253 -2.545581,1.05059 -0.63789,0.62417 -1.050065,1.53456 -1.050065,2.54506 v 18.19992 c 0,1.9936 1.605138,3.59729 3.598746,3.59823 l 13.3345867,0.006 c 1.434517,0.004 4.106873,2.21037 6.27972,4.23334 z"
       sodipodi:nodetypes="cccsscssccccccsscsscccc" />
    <path
       id="path1323"
       style="fill:none;stroke:#de58c9;stroke-width:1.32291666;stroke-linejoin:round;stop-color:#000000;stroke-dasharray:none"
       d="m -0.0046461,114.3205 c 1.99738,-10e-4 4.22356,-2.16786 4.23966,-4.86178 0.0161,-2.69393 1.60497,-3.59857 3.59857,-3.59857 H 26.033304 c 1.99361,0 3.59857,1.60496 3.59857,3.59857 l 0.002,9.08484 -0.002,4.22306 m -8.46667,8.46667 -13.3276401,-0.006 c -1.9936,-9.4e-4 -3.58246,-0.90465 -3.59857,-3.59857 -0.0161,-2.69392 -2.24228,-4.86038 -4.23964999524,-4.86178 M 33.865197,141.88308 c -6.6e-4,-7e-4 -0.001,-0.001 -0.002,-0.002 l -6.415633,-6.41563 c -2.17284,-2.02306 -4.8452,-4.22951 -6.27972,-4.23385 l -13.3345901,-0.006 c -1.9936,-6.2e-4 -3.59874,-1.60464 -3.59874,-3.59823 m 0,-18.19941 c 0,-1.0105 0.41253,-1.92157 1.05058,-2.54558 0.62418,-0.63789 1.53456,-1.05007 2.54506,-1.05007 H 26.030084 c 1.99359,0 3.59729,1.60514 3.59823,3.59875 l 0.006,13.33459 c 0.004,1.43451 2.21037,4.10688 4.233333,6.27972 l 6.41563,6.41563 c 0.002,0.002 0.005,0.004 0.007,0.006"
       sodipodi:nodetypes="csssccccssccsccccccsscccsc"
       inkscape:transform-center-x="-3.2101977"
       inkscape:transform-center-y="5.3248672" />
    <path
       id="path416"
       style="fill:none;stroke:#de58c9;stroke-width:1.32291666;stroke-linejoin:round;stop-color:#000000;stroke-dasharray:none"
       inkscape:transform-center-x="5.3294728"
       inkscape:transform-center-y="-5.3224838"
       d="m 88.878573,169.33065 c 10e-4,1.99738 2.16786,4.22356 4.86178,4.23966 2.69393,0.0161 3.59857,1.60497 3.59857,3.59857 v 18.19972 c 0,1.99361 -1.60496,3.59857 -3.59857,3.59857 l -9.08484,0.002 -9.08485,0.002 c -1.9936,0 -3.59776,-1.60496 -3.59857,-3.59857 l -0.005,-13.3392 m -4.23333,-19.11615 c 6.6e-4,7e-4 0.001,0.001 0.002,0.002 l 6.41563,6.41563 c 2.17284,2.02306 3.16361,2.77757 4.53111,3.48178 1.06147,-0.96294 1.74959,-2.358 1.75038,-3.482 m 13.33282,4.24007 c 1.9936,6.2e-4 3.59874,1.60464 3.59874,3.59823 v 18.19941 c 0,1.0105 -0.41253,1.92157 -1.05058,2.54558 -0.62418,0.63789 -1.53456,1.05007 -2.54506,1.05007 h -18.19993 c -1.99359,0 -3.59729,-1.60514 -3.59823,-3.59875 l -0.006,-13.33459 c -0.004,-1.43451 -2.21037,-4.10688 -4.23333,-6.27972 l -6.415627,-6.41563 c -0.002,-0.002 -0.005,-0.004 -0.007,-0.006"
       sodipodi:nodetypes="cssscccsccsccccsscsscccsc" />
    <path
       id="path1483"
       style="fill:none;stroke:#de58c9;stroke-width:1.32291666;stroke-linejoin:round;stop-color:#000000;stroke-dasharray:none"
       inkscape:transform-center-x="-0.0017935244"
       inkscape:transform-center-y="0.00013530888"
       d="m 27.451039,135.46819 c 7e-4,6.6e-4 10e-4,0.001 0.002,0.002 l 6.415627,6.41563 c 2.02306,2.17284 4.22951,4.8452 4.23385,6.27972 l 0.006,13.33459 c 6.2e-4,1.9936 1.60464,3.59834 3.59823,3.59874 l 13.32712,0.003 m 8.46666,-8.46667 10e-4,-13.33156 c 1.9e-4,-1.99359 -1.60514,-3.59729 -3.59875,-3.59823 l -13.33459,-0.006 c -1.43451,-0.004 -4.10688,-2.21037 -6.27972,-4.23333 l -6.41563,-6.41563 c -0.002,-0.002 -0.004,-0.005 -0.006,-0.007 m 40.284707,40.29023 c -7e-4,-6.6e-4 -0.001,-10e-4 -0.002,-0.002 l -6.41563,-6.41563 c -2.023057,-2.17284 -4.229507,-4.8452 -4.233847,-6.27972 l -0.006,-13.33459 c -6.2e-4,-1.9936 -1.60464,-3.59857 -3.59823,-3.59874 l -13.32892,-0.001 m -8.46667,8.46667 5.3e-4,13.33003 c 8e-5,1.99359 1.60514,3.59729 3.59875,3.59823 l 13.33459,0.006 c 1.43451,0.004 4.10688,2.21037 6.27972,4.23333 l 6.415627,6.41562 c 0.002,0.002 0.004,0.005 0.006,0.007"
       sodipodi:nodetypes="cscccsccscccsccscccsccscccsc" />
    <path
       id="path1496"
       style="fill:none;stroke:#de58c9;stroke-width:1.32291666;stroke-linejoin:round;stop-color:#000000;stroke-dasharray:none"
       inkscape:transform-center-x="-5.3250132"
       inkscape:transform-center-y="5.3297669"
       d="m 175.74961,135.46498 c -7e-4,-6.6e-4 -10e-4,-0.001 -0.002,-0.002 l -6.41563,-6.41563 c -2.02306,-2.17284 -4.22951,-4.8452 -4.23385,-6.27972 l -0.006,-13.33459 c -6.2e-4,-1.9936 -1.60464,-3.59874 -3.59823,-3.59874 h -18.19941 c -1.0105,0 -1.92157,0.41253 -2.54558,1.05058 -0.63789,0.62418 -1.05015,1.53456 -1.05007,2.54506 l 0.001,13.33671 m 8.46666,8.46667 8.46556,7.8e-4 c 1.43451,0.004 4.10688,2.21037 6.27972,4.23333 l 6.41563,6.41563 c 0.002,0.002 0.004,0.005 0.006,0.007 m -33.86689,-0.007 c 6.6e-4,-7e-4 0.001,-0.001 0.002,-0.002 l 6.41563,-6.41563 c 2.17284,-2.02306 4.8452,-4.22951 6.27972,-4.23385 l 8.4693,0.002 m 8.46667,-8.46667 -0.003,-13.33896 c -2e-4,-1.0105 -0.41253,-1.92157 -1.05058,-2.54558 -0.62418,-0.63789 -1.53456,-1.05007 -2.54506,-1.05007 h -18.19993 c -1.99359,0 -3.59729,1.60514 -3.59823,3.59875 l -0.006,13.33459 c -0.004,1.43451 -2.21037,4.10688 -4.23333,6.27972 l -6.41563,6.41563 c -0.002,0.002 -0.005,0.004 -0.007,0.006"
       sodipodi:nodetypes="cscccsscsccccsccsccccscsscccsc" />
    <path
       id="path1502"
       style="fill:none;stroke:#de58c9;stroke-width:1.32291666;stroke-linejoin:round;stop-color:#000000;stroke-dasharray:none"
       inkscape:transform-center-x="5.3287318"
       inkscape:transform-center-y="-0.0028315344"
       d="m 169.3323,175.75055 c 6.6e-4,-7e-4 0.001,-0.001 0.002,-0.002 l 6.41563,-6.41563 c 2.17284,-2.02306 4.8452,-4.22951 6.27972,-4.23385 l 13.33459,-0.006 c 1.9936,-6.2e-4 3.59874,-1.60464 3.59874,-3.59823 v -18.19941 c 0,-1.0105 -0.41253,-1.92157 -1.05058,-2.54558 -0.62418,-0.63789 -1.53456,-1.05015 -2.54506,-1.05007 l -13.33671,0.001 m -8.46667,8.46666 -7.8e-4,8.46556 c -0.004,1.43451 -2.21037,4.10688 -4.23333,6.27972 l -6.41563,6.41563 c -0.002,0.002 -0.005,0.004 -0.007,0.006 m 0.007,-33.86689 c 7e-4,6.6e-4 0.001,0.001 0.002,0.002 l 6.41563,6.41563 c 2.02306,2.17284 4.22951,4.8452 4.23385,6.27972 l -0.002,8.4693 m 8.46667,8.46667 13.33896,-0.003 c 1.0105,-2e-4 1.92157,-0.41253 2.54558,-1.05058 0.63789,-0.62418 1.05007,-1.53456 1.05007,-2.54506 v -18.19993 c 0,-1.99359 -1.60514,-3.59729 -3.59875,-3.59823 l -13.33459,-0.006 c -1.43451,-0.004 -4.10688,-2.21037 -6.27972,-4.23333 l -6.41563,-6.41563 c -0.002,-0.002 -0.004,-0.005 -0.006,-0.007"
       sodipodi:nodetypes="cscccsscsccccsccsccccscsscccsc" />
    <path
       id="path1490"
       style="fill:none;stroke:#de58c9;stroke-width:1.32291666;stroke-linejoin:round;stop-color:#000000;stroke-dasharray:none"
       inkscape:transform-center-x="-5.328738"
       inkscape:transform-center-y="0.0028284655"
       d="m 135.46405,129.04768 c -6.6e-4,7e-4 -10e-4,10e-4 -0.002,0.002 l -6.41563,6.41563 c -2.17284,2.02306 -4.8452,4.22951 -6.27972,4.23385 l -13.33459,0.006 c -1.9936,6.2e-4 -3.59874,1.60464 -3.59874,3.59823 v 18.19941 c 0,1.0105 0.41253,1.92157 1.05058,2.54558 0.62418,0.63789 1.53456,1.05015 2.54506,1.05007 l 13.33671,-0.001 m 8.46667,-8.46666 7.8e-4,-8.46556 c 0.004,-1.43451 2.21037,-4.10688 4.23333,-6.27972 l 6.41563,-6.41563 c 0.002,-0.002 0.005,-0.004 0.007,-0.006 m -0.007,33.86689 c -7e-4,-6.6e-4 -10e-4,-0.001 -0.002,-0.002 l -6.41563,-6.41563 c -2.02306,-2.17284 -4.22951,-4.8452 -4.23385,-6.27972 l 0.002,-8.4693 m -8.46667,-8.46667 -13.33896,0.003 c -1.0105,2e-4 -1.92157,0.41253 -2.54558,1.05058 -0.63789,0.62418 -1.05007,1.53456 -1.05007,2.54506 v 18.19993 c 0,1.99359 1.60514,3.59729 3.59875,3.59823 l 13.33459,0.006 c 1.43451,0.004 4.10688,2.21037 6.27972,4.23333 l 6.41563,6.41563 c 0.002,0.002 0.004,0.005 0.006,0.007"
       sodipodi:nodetypes="cscccsscsccccsccsccccscsscccsc" />
    <path
       id="path1468"
       style="fill:none;stroke:#de58c9;stroke-width:1.32291666;stroke-linejoin:round;stop-color:#000000;stroke-dasharray:none"
       inkscape:transform-center-x="-0.0028803236"
       inkscape:transform-center-y="-5.3279666"
       d="m 129.04686,169.33477 c 7e-4,6.6e-4 10e-4,0.001 0.002,0.002 l 6.41563,6.41563 c 2.02306,2.17284 4.22951,4.8452 4.23385,6.27972 l 0.006,13.33459 c 6.2e-4,1.9936 1.60464,3.59874 3.59823,3.59874 h 18.19941 c 1.0105,0 1.92157,-0.41253 2.54558,-1.05058 0.63789,-0.62418 1.05015,-1.53456 1.05007,-2.54506 l -0.001,-13.33671 m -8.46666,-8.46667 -8.46556,-7.8e-4 c -1.43451,-0.004 -4.10688,-2.21037 -6.27972,-4.23333 l -6.41563,-6.41563 c -0.002,-0.002 -0.004,-0.005 -0.006,-0.007 m 33.86689,0.007 c -6.6e-4,7e-4 -0.001,0.001 -0.002,0.002 l -6.41563,6.41563 c -2.17284,2.02306 -4.8452,4.22951 -6.27972,4.23385 l -8.4693,-0.002 m -8.46667,8.46667 0.003,13.33896 c 2e-4,1.0105 0.41253,1.92157 1.05058,2.54558 0.62418,0.63789 1.53456,1.05007 2.54506,1.05007 h 18.19993 c 1.99359,0 3.59729,-1.60514 3.59823,-3.59875 l 0.006,-13.33459 c 0.004,-1.43451 2.21037,-4.10688 4.23333,-6.27972 l 6.41563,-6.41563 c 0.002,-0.002 0.005,-0.004 0.007,-0.006"
       sodipodi:nodetypes="cscccsscsccccsccsccccscsscccsc" />
    <path
       id="path1436"
       style="fill:none;stroke:#de58c9;stroke-width:1.32291666;stroke-linejoin:round;stop-color:#000000;stroke-dasharray:none"
       d="m 215.92155,203.20335 c -0.001,-1.99737 -2.16786,-4.22355 -4.86178,-4.23965 -2.69393,-0.0161 -3.59857,-1.60497 -3.59857,-3.59857 v -18.19972 c 0,-1.99361 1.60496,-3.59857 3.59857,-3.59857 l 9.08484,-0.002 4.22306,0.002 m 8.46667,8.46667 -0.006,13.32764 c -9.4e-4,1.9936 -0.90465,3.58246 -3.59857,3.59857 -2.69392,0.0161 -4.86038,2.24228 -4.86178,4.23964 m 19.11615,-33.86584 c -7e-4,6.6e-4 -0.001,0.001 -0.002,0.002 l -6.41564,6.41563 c -2.02306,2.17284 -4.22951,4.8452 -4.23385,6.27972 l -0.006,13.33459 c -6.2e-4,1.9936 -1.60464,3.59874 -3.59823,3.59874 m -18.19941,0 c -1.0105,0 -1.92157,-0.41253 -2.54558,-1.05058 -0.63789,-0.62418 -1.05007,-1.53456 -1.05007,-2.54506 v -18.19993 c 0,-1.99359 1.60514,-3.59729 3.59875,-3.59823 l 13.33459,-0.006 c 1.43451,-0.004 4.10688,-2.21037 6.27972,-4.23333 l 6.41563,-6.41563 c 0.002,-0.002 0.004,-0.005 0.006,-0.007"
       sodipodi:nodetypes="csssccccssccsccccccsscccsc"
       inkscape:transform-center-x="-5.3254232"
       inkscape:transform-center-y="-3.2097917" />
    <path
       id="path1476"
       style="fill:none;stroke:#de58c9;stroke-width:1.32291666;stroke-linejoin:round;stop-color:#000000;stroke-dasharray:none"
       inkscape:transform-center-x="-0.00013552446"
       inkscape:transform-center-y="-0.0017946911"
       d="m 237.06667,175.74949 c 6.6e-4,-7e-4 0.001,-0.001 0.002,-0.002 l 6.41563,-6.41563 c 2.17284,-2.02306 4.8452,-4.22951 6.27972,-4.23385 l 13.33459,-0.006 c 1.9936,-6.2e-4 3.59834,-1.60464 3.59874,-3.59823 l 0.003,-13.32712 M 258.23368,139.7 244.90212,139.699 c -1.99359,-1.9e-4 -3.59729,1.60514 -3.59823,3.59875 l -0.006,13.33459 c -0.004,1.43451 -2.21037,4.10688 -4.23333,6.27972 l -6.41563,6.41563 c -0.002,0.002 -0.005,0.004 -0.007,0.006 m 40.29023,-40.28471 c -6.6e-4,7e-4 -0.001,0.001 -0.002,0.002 l -6.41563,6.41563 c -2.17284,2.02306 -4.8452,4.22951 -6.27972,4.23385 l -13.33459,0.006 c -1.9936,6.2e-4 -3.59857,1.60464 -3.59874,3.59823 l -0.001,13.32892 m 8.46667,8.46667 13.33003,-5.3e-4 c 1.99359,-8e-5 3.59729,-1.60514 3.59823,-3.59875 l 0.006,-13.33459 c 0.004,-1.43451 2.21037,-4.10688 4.23333,-6.27972 l 6.41562,-6.41563 c 0.002,-0.002 0.005,-0.004 0.007,-0.006"
       sodipodi:nodetypes="cscccsccscccsccscccsccscccsc" />
    <path
       id="path1331"
       style="fill:none;stroke:#de58c9;stroke-width:1.32291666;stroke-linejoin:round;stop-color:#000000;stroke-dasharray:none"
       d="m 292.0783,101.59561 c 10e-4,1.99738 2.16786,4.22356 4.86178,4.23966 2.69393,0.0161 3.59857,1.60497 3.59857,3.59857 v 18.19972 c 0,1.99361 -1.60496,3.59857 -3.59857,3.59857 l -9.08484,0.002 -4.22306,-0.002 m -8.46667,-8.46667 0.006,-13.32764 c 9.4e-4,-1.9936 0.90465,-3.58246 3.59857,-3.59857 2.69392,-0.0161 4.86038,-2.24228 4.86178,-4.23965 m -19.11614,33.86585 c 7e-4,-6.6e-4 0.001,-0.001 0.002,-0.002 l 6.41563,-6.41563 c 2.02306,-2.17284 4.22951,-4.8452 4.23385,-6.27972 l 0.006,-13.33459 c 6.2e-4,-1.9936 1.60464,-3.59874 3.59823,-3.59874 m 18.19941,0 c 1.0105,0 1.92157,0.41253 2.54558,1.05058 0.63789,0.62418 1.05007,1.53456 1.05007,2.54506 v 18.19993 c 0,1.99359 -1.60514,3.59729 -3.59875,3.59823 l -13.33459,0.006 c -1.43451,0.004 -4.10688,2.21037 -6.27972,4.23333 l -6.41563,6.41563 c -0.002,0.002 -0.004,0.005 -0.006,0.007"
       sodipodi:nodetypes="csssccccssccsccccccsscccsc"
       inkscape:transform-center-x="5.3253015"
       inkscape:transform-center-y="3.2106802" />
    <g
       id="g1074"
       transform="translate(237.06668,135.46667)">
      <path
         id="rect348"
         style="fill:#ececcb;fill-opacity:1;stroke:none;stroke-width:0.021164;stop-color:#000000"
         d="m 7.8398617,4.2412256 c -1.9936055,0 -3.5986336,1.6050285 -3.5986336,3.5986336 V 26.03944 c 0,0.996803 0.40102,1.896345 1.0514604,2.546785 h 3.882e-4 L 28.586227,5.2930742 c -6.6e-5,-6.62e-5 6.6e-5,-3.219e-4 0,-3.88e-4 -0.65044,-0.6504407 -1.549982,-1.0514606 -2.546785,-1.0514606 z" />
      <path
         id="rect409"
         style="fill:#c0c092;fill-opacity:1;stroke:none;stroke-width:0.021164"
         d="M 28.586227,5.2930743 5.293077,28.586225 c 0.6504246,0.650324 1.5500836,1.051849 2.546785,1.051849 h 18.19958 c 1.993606,0 3.598634,-1.605029 3.598634,-3.598634 V 7.8398594 c 0,-0.9967014 -0.401525,-1.8963597 -1.051849,-2.5467851 z"
         class="dice_dark" />
      <rect
         style="fill:#fcfcd0;fill-opacity:1;stroke:none;stroke-width:0.0167336;stroke-opacity:1;stop-color:#000000"
         id="rect346"
         width="20.080273"
         height="20.080273"
         x="6.8995132"
         y="6.8995128"
         ry="2.8452444" />
      <rect
         style="fill:#ffffe8;fill-opacity:1;stroke:none;stroke-width:0.0167336;stroke-opacity:1;stop-color:#000000"
         id="rect1068"
         width="20.080273"
         height="20.080273"
         x="6.8995132"
         y="6.8995128"
         ry="2.8452444" />
    </g>
  </g>
</svg>
